<?xml version="1.0" encoding="UTF-8" standalone="no"?>
<svg
   fill="#000000"
   viewBox="0 0 24 24"
   width="24px"
   height="24px"
   version="1.1"
   id="svg1905"
   sodipodi:docname="icons8-facebook.svg"
   inkscape:version="1.1.1 (3bf5ae0d25, 2021-09-20)"
   xmlns:inkscape="http://www.inkscape.org/namespaces/inkscape"
   xmlns:sodipodi="http://sodipodi.sourceforge.net/DTD/sodipodi-0.dtd"
   xmlns="http://www.w3.org/2000/svg"
   xmlns:svg="http://www.w3.org/2000/svg">
  <defs
     id="defs1909" />
  <sodipodi:namedview
     id="namedview1907"
     pagecolor="#505050"
     bordercolor="#eeeeee"
     borderopacity="1"
     inkscape:pageshadow="0"
     inkscape:pageopacity="0"
     inkscape:pagecheckerboard="0"
     showgrid="false"
     inkscape:zoom="34.333333"
     inkscape:cx="12"
     inkscape:cy="12.014563"
     inkscape:window-width="2560"
     inkscape:window-height="1009"
     inkscape:window-x="-8"
     inkscape:window-y="-8"
     inkscape:window-maximized="1"
     inkscape:current-layer="svg1905" />
  <path
     d="M 5 3 C 3.897 3 3 3.897 3 5 L 3 19 C 3 20.103 3.897 21 5 21 L 11.621094 21 L 14.414062 21 L 19 21 C 20.103 21 21 20.103 21 19 L 21 5 C 21 3.897 20.103 3 19 3 L 5 3 z M 5 5 L 19 5 L 19.001953 19 L 14.414062 19 L 14.414062 15.035156 L 16.779297 15.035156 L 17.130859 12.310547 L 14.429688 12.310547 L 14.429688 10.574219 C 14.429687 9.7862188 14.649297 9.2539062 15.779297 9.2539062 L 17.207031 9.2539062 L 17.207031 6.8222656 C 16.512031 6.7512656 15.814234 6.71675 15.115234 6.71875 C 13.041234 6.71875 11.621094 7.9845938 11.621094 10.308594 L 11.621094 12.314453 L 9.2773438 12.314453 L 9.2773438 15.039062 L 11.621094 15.039062 L 11.621094 19 L 5 19 L 5 5 z"
     id="path1903"
     style="fill:#ffffff" />
</svg>
