<?xml version="1.0" encoding="UTF-8" standalone="no"?>
<!-- Generator: Adobe Illustrator 16.0.0, SVG Export Plug-In . SVG Version: 6.00 Build 0)  -->

<svg
   version="1.1"
   id="Capa_1"
   x="0px"
   y="0px"
   width="466.712px"
   height="466.712px"
   viewBox="0 0 466.712 466.712"
   style="enable-background:new 0 0 466.712 466.712;"
   xml:space="preserve"
   sodipodi:docname="maps-icon.svg"
   inkscape:version="1.1.1 (3bf5ae0d25, 2021-09-20)"
   xmlns:inkscape="http://www.inkscape.org/namespaces/inkscape"
   xmlns:sodipodi="http://sodipodi.sourceforge.net/DTD/sodipodi-0.dtd"
   xmlns="http://www.w3.org/2000/svg"
   xmlns:svg="http://www.w3.org/2000/svg"><defs
   id="defs904" /><sodipodi:namedview
   id="namedview902"
   pagecolor="#505050"
   bordercolor="#eeeeee"
   borderopacity="1"
   inkscape:pageshadow="0"
   inkscape:pageopacity="0"
   inkscape:pagecheckerboard="0"
   showgrid="false"
   inkscape:zoom="1.7162618"
   inkscape:cx="233.06467"
   inkscape:cy="233.356"
   inkscape:window-width="2560"
   inkscape:window-height="1009"
   inkscape:window-x="-8"
   inkscape:window-y="-8"
   inkscape:window-maximized="1"
   inkscape:current-layer="g867" />
<g
   id="g869">
	<g
   id="g867">
		<path
   d="M233.353,0C178.301,0,126.625,31.355,100.94,80.019c-13.302,25.216-19.077,54.085-16.639,82.496    c3.088,35.802,19.44,62.606,40.401,90.566c46.11,61.487,74.454,134.439,101.735,205.947c3.912,10.251,10.261,10.242,14.172-0.009    c26.718-69.94,54.478-140.856,98.59-201.74c18.724-25.848,35.773-49.209,41.491-81.578c5.336-30.236,1.187-61.879-11.914-89.658    C344.307,34.138,290.775,0,233.353,0z M233.353,194.157c-25.838,0-47.411-21.583-47.411-47.421    c0-25.847,21.573-47.42,47.411-47.42c25.848,0,47.431,21.573,47.431,47.42C280.783,172.574,259.2,194.157,233.353,194.157z"
   id="path865"
   style="fill:#ffffff" />
	</g>
</g>
<g
   id="g871">
</g>
<g
   id="g873">
</g>
<g
   id="g875">
</g>
<g
   id="g877">
</g>
<g
   id="g879">
</g>
<g
   id="g881">
</g>
<g
   id="g883">
</g>
<g
   id="g885">
</g>
<g
   id="g887">
</g>
<g
   id="g889">
</g>
<g
   id="g891">
</g>
<g
   id="g893">
</g>
<g
   id="g895">
</g>
<g
   id="g897">
</g>
<g
   id="g899">
</g>
</svg>
