<svg xmlns:inkscape="http://www.inkscape.org/namespaces/inkscape" xmlns:sodipodi="http://sodipodi.sourceforge.net/DTD/sodipodi-0.dtd" xmlns="http://www.w3.org/2000/svg" xmlns:svg="http://www.w3.org/2000/svg" version="1.1" id="svg2605" sodipodi:docname="logo-nome-branco-amarelo.svg" inkscape:version="1.1.1 (3bf5ae0d25, 2021-09-20)" viewBox="37.39 64.29 263.31 134.39">
  <defs id="defs2609"/>
  <sodipodi:namedview id="namedview2607" pagecolor="#505050" bordercolor="#eeeeee" borderopacity="1" inkscape:pageshadow="0" inkscape:pageopacity="0" inkscape:pagecheckerboard="0" showgrid="false" inkscape:zoom="2.2368549" inkscape:cx="181.05779" inkscape:cy="132.55218" inkscape:window-width="2560" inkscape:window-height="1009" inkscape:window-x="-8" inkscape:window-y="-8" inkscape:window-maximized="1" inkscape:current-layer="g2672"/>
  <g inkscape:groupmode="layer" inkscape:label="Image" id="g2611">
    <g id="g2672" transform="translate(22.796019,21.774818)">
      <g id="g4027">
        <path id="path2680" style="fill:#fbf8f8;stroke-width:0.32" d="m 67.184047,42.51945 c -11.526692,-0.01571 -22.547099,4.968919 -28.501954,12.890629 -5.446835,7.24589 -5.913133,15.49478 -1.1875,21.01562 2.437254,2.84738 5.455059,4.00341 9.851562,3.77344 l 2.949219,-0.1543 -3.277344,6.75391 c -1.802634,3.71419 -4.879355,10.04612 -6.835937,14.072261 -5.305098,10.9165 -6.041239,13.36621 -4.34961,14.47461 1.253785,0.82151 4.708987,0.47082 6.851563,-0.69531 3.255853,-1.77206 5.272066,-4.72306 15.615234,-22.859371 13.563227,-23.78263 16.085937,-28.82132 16.085937,-32.14649 0,-2.8877 -1.55361,-3.69341 -7.11133,-3.69141 -3.35434,0.001 -4.08255,0.0932 -4.9707,0.63477 -1.06577,0.64981 -1.09887,0.71191 -6.794922,12.70508 l -1.701172,3.58203 -1.150391,-0.5918 c -5.569085,-2.85646 -5.432413,-11.94258 0.265625,-17.64062 2.029111,-2.02911 5.284658,-3.839 8.43164,-4.68555 2.88657,-0.7765 9.47571,-0.67159 12.81055,0.20313 6.3649,1.66949 10.43716,5.7541 11.89258,11.92773 1.39987,5.93796 -0.0171,15.09369 -3.78907,24.47266 -6.24196,15.520551 -15.98127,27.037101 -27.56445,32.595701 -4.616515,2.21539 -10.981302,3.24435 -14.949219,2.41601 -6.049344,-1.26284 -10.431558,-6.0917 -11.644531,-12.83007 -1.217056,-6.76106 0.8141,-12.813941 6.029297,-17.958991 2.067632,-2.03983 2.804687,-2.97933 2.804687,-3.58008 0,-1.25188 -1.087703,-1.8125 -3.523437,-1.8125 -5.867581,0 -11.888723,3.5204 -15.654297,9.1504 -2.217421,3.31531 -2.949927,5.773991 -3.140625,10.546871 -0.17568,4.39695 0.399443,7.21313 2.205078,10.79883 3.963114,7.87012 11.691986,13.31934 20.914063,14.74414 1.948794,0.30108 10.653593,-0.0908 13.599609,-0.61133 13.189395,-2.33059 26.180065,-10.50727 34.945315,-21.99805 5.643828,-7.39876 10.100898,-16.997391 12.144528,-26.150391 0.6544,-2.93113 0.74867,-4.17665 0.73437,-9.75976 -0.0143,-5.59058 -0.10556,-6.7247 -0.72461,-8.96094 -2.70214,-9.76105 -9.6471,-16.58622 -19.574208,-19.23828 -2.78251,-0.74335 -8.19306,-1.387779 -11.68555,-1.392579 z m 55.865223,0.332029 -1.21289,0.50391 c -1.86115,0.77135 -5.32968,3.17282 -6.57812,4.55469 -4.69585,5.19775 -4.83532,11.21308 -0.45703,19.58203 2.50775,4.79349 2.65818,8.26506 0.47851,10.98242 l -0.99805,1.24609 1.23633,-0.23242 c 2.68507,-0.50373 5.12023,-2.23424 6.32813,-4.49805 1.00608,-1.88559 0.91341,-5.03935 -0.24024,-8.16015 -3.35757,-9.08272 -3.20784,-8.49276 -3.21484,-12.64063 -0.006,-3.54489 0.0621,-3.98731 0.89062,-5.75976 0.49364,-1.056 1.54279,-2.74215 2.33204,-3.74805 z m -13.27343,9.98438 c -0.24419,-0.24418 -2.71539,3.2727 -3.43555,4.88867 -0.9218,2.06849 -0.94809,4.8873 -0.0625,6.87305 0.35482,0.7956 1.66861,2.54905 2.91797,3.89648 2.49541,2.6913 2.97823,3.91971 2.39843,6.0918 l -0.32617,1.2207 0.99805,-0.76172 c 1.39091,-1.06383 2.42759,-2.99949 2.43359,-4.54687 0.006,-1.58878 -0.66231,-2.93564 -2.69531,-5.42579 -3.04126,-3.72511 -3.8825,-7.17241 -2.60547,-10.6914 0.28139,-0.77546 0.45096,-1.47092 0.37696,-1.54492 z m 151.38867,0.61523 c -1.46561,-0.1211 -3.40297,0.49726 -8.06055,2.57227 -4.57256,2.03714 -10.29807,3.96338 -13.11914,4.41406 -1.232,0.19682 -2.63509,0.50902 -3.11719,0.69336 -1.36028,0.52012 -3.12304,2.6546 -3.12304,3.78125 v 0.95898 h 4.95898 c 2.728,0 4.96094,0.0821 4.96094,0.18164 0,0.0995 -1.82364,3.23053 -4.05274,6.95899 -5.23306,8.75297 -8.70452,15.83378 -10.51953,21.45703 -0.78775,2.44059 -1.52031,4.99282 -1.6289,5.671871 -0.16418,1.02672 -0.44667,1.39448 -1.67774,2.18164 -2.50163,1.59963 -6.44141,3.32577 -6.44141,2.82227 0,-0.048 0.36511,-1.52529 0.81055,-3.28125 1.01171,-3.988281 1.42433,-8.984761 1.19531,-14.458981 -0.20189,-4.82608 -0.0193,-5.38367 2.11914,-6.47461 1.34,-0.68361 1.63477,-1.15701 1.63477,-2.625 0,-2.43138 -1.08097,-2.83399 -7.62695,-2.83399 -7.55444,0 -7.12958,-0.32416 -15.13086,11.60156 -2.80487,4.18066 -5.59731,8.59172 -6.20508,9.80274 -1.03454,2.06141 -2.07617,5.290181 -2.07617,6.435551 0,1.02394 -4.94074,3.51953 -6.9668,3.51953 -3.19066,0 -2.89286,-1.14289 3.70899,-14.238281 6.80044,-13.48934 7.09765,-14.13097 7.09765,-15.35743 0,-2.1884 -2.4639,-2.58631 -7.65234,-1.23632 -3.42165,0.89028 -3.81699,1.42852 -7.69531,10.44921 -3.03229,7.05297 -6.35229,13.45442 -8.375,16.148441 -1.51336,2.01562 -3.30748,3.2723 -4.97461,3.48633 -1.83333,0.23536 -2.51528,-0.41688 -2.45118,-2.3457 0.10904,-3.2811 2.83022,-9.161591 8.94727,-19.328131 2.42277,-4.02665 3.96094,-6.91133 3.96094,-7.43164 0,-1.49034 -1.1024,-1.90839 -4.04492,-1.5332 -3.67196,0.46821 -5.21832,1.10216 -6.91602,2.83789 -3.20093,3.27264 -8.47428,13.11029 -10.78906,20.12695 l -1.36133,4.125001 -2.32813,1.67383 c -1.28023,0.92076 -3.71302,2.40351 -5.40625,3.29492 -3.48683,1.83563 -3.34564,2.10824 -1.32617,-2.59179 0.64279,-1.496 3.31224,-6.823851 5.9336,-11.839851 5.03285,-9.63043 7.14507,-13.98586 7.48632,-15.44531 0.1626,-0.69537 0.0276,-1.06617 -0.625,-1.71875 -0.79155,-0.79155 -0.94346,-0.82252 -3.12695,-0.61719 -4.55738,0.42856 -6.77808,1.41091 -8.2207,3.63672 l -0.47461,0.73438 -2.36328,-1.21485 c -2.28708,-1.17596 -2.46344,-1.21416 -5.59961,-1.19726 -2.73383,0.0148 -3.57984,0.15268 -5.43555,0.88086 -3.25418,1.27693 -5.66409,2.86041 -8.64453,5.68164 -4.2386,4.01218 -7.49332,9.2475 -8.87109,14.26953 -0.91945,3.351421 -0.77519,9.367981 0.28125,11.722651 l 0.6875,1.53321 -0.80664,0.30664 c -4.30039,1.63501 -7.55131,4.33535 -9.16407,7.61133 -0.94725,1.92418 -1.04497,2.39467 -1.04297,5.00976 0.001,2.25486 0.14877,3.20624 0.67383,4.34375 1.33127,2.88409 3.98821,5.0948 7.14258,5.94531 2.01228,0.54257 5.86146,0.52295 8.25977,-0.043 4.71281,-1.11116 9.29025,-3.98849 12.23437,-7.69335 1.86751,-2.35007 5.01827,-7.22508 5.99414,-9.27149 0.40059,-0.84004 0.91634,-1.23974 2.30469,-1.79101 2.47559,-0.98297 7.22772,-3.36461 9.14844,-4.58399 0.88,-0.55867 1.76953,-1.11783 1.97656,-1.24219 0.25696,-0.15435 0.49552,0.3445 0.75,1.57032 1.34992,6.50249 9.59777,6.5479 15.99414,0.0879 2.13896,-2.16028 2.22308,-2.20917 2.38867,-1.41602 0.0943,0.45193 0.23982,1.14502 0.32422,1.54102 0.3093,1.45207 1.4499,2.79175 3.11524,3.6582 1.39643,0.72654 2.1105,0.88166 4.09179,0.89062 2.11368,0.01 2.68514,-0.12609 4.79883,-1.14453 1.32,-0.63601 3.61381,-2.02952 5.0957,-3.0957 l 2.69336,-1.9375 0.98633,1.64063 c 1.9947,3.32257 5.38606,4.92761 9.76953,4.62304 2.73492,-0.19003 5.59827,-1.09503 7.51563,-2.37695 0.71555,-0.47841 2.59568,-1.19707 4.17968,-1.5957 1.60611,-0.4042 4.39634,-1.47568 6.3086,-2.42188 l 3.42969,-1.69531 0.3125,1.45898 c 0.47298,2.2054 0.84663,3.00982 2.00586,4.33008 2.0215,2.30236 4.74842,2.89321 8.69726,1.88281 7.20602,-1.84382 16.02997,-10.07372 20.83789,-19.435541 1.60063,-3.1167 1.74044,-3.95078 0.8418,-5.06055 -0.59157,-0.73055 -0.6376,-0.73543 -1.71289,-0.22266 -0.76004,0.36244 -1.65884,1.35685 -2.88282,3.19336 -4.62495,6.939501 -10.49155,11.789071 -14.26367,11.789071 -2.17814,0 -2.61328,-0.56571 -2.61328,-3.38868 0,-3.985921 2.46869,-12.153721 5.48633,-18.150391 1.03831,-2.06331 5.14059,-8.99426 8.98633,-15.18164 l 2.23828,-3.59961 h 7.33594 c 8.56603,0 8.47774,0.0242 12.09765,-3.39062 2.10793,-1.98851 3.85547,-4.66736 3.85547,-5.91211 0,-1.18525 -0.8144,-1.38039 -3.44726,-0.82422 -2.30796,0.48753 -12.89241,2.12683 -13.73243,2.12695 -0.2081,3e-5 0.12289,-0.74368 0.73438,-1.65234 1.37936,-2.04972 1.31633,-2.63443 -0.29492,-2.76758 z m -50.30078,30.30274 -0.084,4.89843 c -0.19331,11.10954 -1.31393,15.834141 -4.23633,17.876961 -2.02975,1.41884 -4.49794,0.83222 -5.61914,-1.33594 -0.4385,-0.84797 -0.40272,-0.94887 0.82813,-2.3711 3.00984,-3.477561 5.49948,-7.898961 5.55078,-9.857421 0.0245,-0.93601 -0.15077,-1.3854 -0.7168,-1.84375 l -0.74804,-0.60547 1.79101,-2.48242 c 0.98557,-1.36503 2.11702,-2.88676 2.51367,-3.38086 z m -69.19532,2.04296 c 1.37361,0.0815 2.79688,0.42353 2.79688,0.75782 0,0.50324 -3.19449,7.81933 -4.65625,10.66406 -2.07034,4.029071 -3.67445,6.211831 -5.51563,7.505861 -1.08723,0.76413 -1.78105,0.98279 -3.43164,1.08789 -2.00359,0.12758 -2.10273,0.0984 -3.16797,-0.9668 -2.92312,-2.92312 -1.27948,-8.739371 3.96875,-14.046871 3.11168,-3.14682 5.79841,-4.68654 8.70313,-4.98633 0.39217,-0.0405 0.84486,-0.0428 1.30273,-0.0156 z m -14.43164,29.525391 c 2.40533,-0.006 4.48003,0.0953 4.60938,0.22461 0.39694,0.39695 -2.07222,3.79981 -4.4961,6.19727 -1.5196,1.50304 -3.03362,2.63529 -4.46875,3.3418 -4.64839,2.2884 -8.49609,1.15859 -8.49609,-2.4961 0,-1.29505 1.61651,-3.67983 3.25,-4.79492 2.89456,-1.97594 4.7776,-2.46111 9.60156,-2.47266 z"/>
        <path style="fill:#fbe30e;stroke-width:0.32" d="m 98.205955,176.30778 c -2.03013,-0.92212 -3.53116,-2.93401 -4.45935,-5.97706 -0.95193,-3.1209 -0.95345,-3.14558 -0.26536,-4.31043 0.50618,-0.85689 0.50355,-0.98494 -0.0454,-2.20221 -0.32054,-0.71082 -0.83139,-1.37131 -1.13522,-1.46775 -0.30384,-0.0964 -0.81446,-0.46487 -1.13472,-0.81876 -0.51786,-0.57222 -0.53622,-0.77494 -0.16593,-1.83183 0.22899,-0.65362 0.89976,-1.6941 1.49059,-2.31217 0.89764,-0.93903 1.12575,-1.48752 1.38759,-3.33645 1.05118,-7.42265 8.182545,-12.97242 16.665625,-12.9695 5.36384,0.002 9.83171,1.80545 13.08344,5.28155 2.49494,2.66711 3.52266,4.82147 3.85026,8.07116 0.20602,2.04365 0.43308,2.79348 1.11772,3.69108 0.47254,0.61954 0.94251,1.64005 1.04439,2.2678 0.15653,0.96462 0.0303,1.31782 -0.8153,2.28088 -1.07708,1.22673 -1.26999,2.41568 -0.62252,3.83673 0.30275,0.66445 0.27813,1.12927 -0.12368,2.33505 -0.27591,0.82801 -0.67319,2.13551 -0.88284,2.90556 -0.4934,1.81231 -2.86884,4.22836 -4.68859,4.76877 -0.92689,0.27525 -4.52961,0.38906 -12.16,0.38411 -9.84115,-0.006 -10.962775,-0.0615 -12.140735,-0.59653 z m 25.094435,-1.72925 c 1.40309,-0.92901 2.60017,-2.54239 2.60223,-3.50719 0.001,-0.52549 -0.93549,-0.56 -15.19881,-0.56 -13.514255,0 -15.199995,0.055 -15.199995,0.49589 0,0.73799 0.79332,2.12522 1.69926,2.97139 1.67167,1.56137 2.4648,1.65021 14.004825,1.56865 l 10.74408,-0.0759 z m -12.43658,-6.30713 c -1.72635,-1.35025 -2.6426,-1.54522 -9.05009,-1.92574 -6.788735,-0.40317 -7.269905,-0.33031 -7.269905,1.10086 0,1.41151 0.32945,1.4652 8.943995,1.4577 8.17381,-0.007 8.17579,-0.007 7.376,-0.63282 z m 15.616,0.25594 c 0.61582,-0.61582 0.45101,-1.79762 -0.30727,-2.20344 -0.52596,-0.28149 -2.02941,-0.26882 -6.28659,0.0529 -5.31906,0.40204 -5.63252,0.46303 -6.34873,1.23543 -0.41437,0.44689 -0.75341,0.92199 -0.75341,1.05579 0,0.42861 13.26295,0.29233 13.696,-0.14073 z m -12.57768,-4.09362 c 0.99132,-1.40669 1.71274,-2.70269 1.60316,-2.88 -0.34053,-0.55099 -1.74316,-0.35508 -2.74132,0.38289 -1.36354,1.0081 -4.50186,1.16483 -6.14604,0.30693 -0.66323,-0.34607 -1.49958,-0.55241 -1.85854,-0.45853 -0.51638,0.13503 0.13628,0.69626 3.12589,2.68799 2.07819,1.38453 3.87662,2.51755 3.99649,2.51783 0.11988,2.8e-4 1.02904,-1.15042 2.02036,-2.55711 z m -9.45615,-0.18091 c -1.96968,-1.4628 -2.99021,-1.95628 -4.877915,-2.35876 -1.62472,-0.3464 -2.05298,-0.32474 -3.44,0.17403 -0.87133,0.31333 -1.58425,0.66929 -1.58425,0.79102 0,0.12174 0.27307,0.55856 0.60683,0.97073 0.53231,0.65738 0.97433,0.77325 3.6,0.94369 1.646235,0.10686 3.849145,0.21759 4.895335,0.24606 l 1.90217,0.0518 z m 21.37783,0.28286 c 1.16863,-0.28195 0.90815,-1.27006 -0.39035,-1.48078 -0.6107,-0.0991 -1.8707,-0.56348 -2.8,-1.03195 -1.2961,-0.65338 -2.00637,-0.81666 -3.04947,-0.70102 -1.58929,0.1762 -2.03203,0.4953 -3.35488,2.418 l -0.9807,1.42539 4.92771,-0.22796 c 2.71023,-0.12538 5.25169,-0.30614 5.64769,-0.40168 z m 2.13715,-3.16719 c 0.70445,-0.70445 0.64406,-0.95246 -0.54896,-2.25427 l -1.05182,-1.14774 -16.25477,-0.0476 -16.254755,-0.0476 -0.77342,0.89784 c -1.67514,1.94464 -0.30366,3.07322 2.41666,1.98864 1.50268,-0.59912 1.99574,-0.62657 5.401575,-0.30078 1.14527,0.10955 2.65071,0.0384 3.4506,-0.16296 1.29185,-0.32529 1.54233,-0.28499 2.79646,0.44998 2.08259,1.22048 4.1726,0.96019 5.4919,-0.68395 0.62109,-0.77403 0.71545,-0.79326 2.08,-0.42404 0.92397,0.25002 2.3518,0.31255 4.0381,0.17687 2.5521,-0.20536 2.65513,-0.18529 4.74658,0.92424 2.31586,1.22859 3.6726,1.42056 4.46185,0.6313 z m -1.73715,-5.99906 c 0,-1.45585 -0.86716,-4.25997 -1.82245,-5.89319 -0.43594,-0.7453 -1.53049,-2.0185 -2.43232,-2.82933 -6.25843,-5.62686 -16.36148,-5.65837 -22.475945,-0.0701 -0.97472,0.89084 -2.13956,2.24653 -2.58853,3.01264 -0.91986,1.56961 -1.71126,4.2439 -1.71695,5.80188 l -0.004,1.04 h 15.519995 15.52 z m -21.97253,-2.31959 c -0.26671,-0.69503 0.41038,-1.34865 0.89502,-0.864 0.40962,0.40961 0.15586,1.36551 -0.36249,1.36551 -0.18704,0 -0.42668,-0.22568 -0.53253,-0.50151 z m 11.79345,-0.37849 c 0.0593,-0.308 0.3199,-0.56 0.57908,-0.56 0.25919,0 0.51977,0.252 0.57909,0.56 0.0757,0.39291 -0.0971,0.56 -0.57909,0.56 -0.48196,0 -0.65474,-0.16709 -0.57908,-0.56 z m -17.769965,-0.31756 c -0.0928,-0.15015 -0.0487,-0.46711 0.0979,-0.70435 0.32454,-0.52512 1.40035,-0.18578 1.21128,0.38208 -0.16013,0.48093 -1.07231,0.70548 -1.30915,0.32227 z m 8.329045,-0.60911 c -0.45296,-0.45296 -0.19665,-1.07333 0.44347,-1.07333 0.44735,0 0.62976,0.17377 0.56,0.53348 -0.11422,0.58895 -0.66048,0.88283 -1.00347,0.53985 z m 2.88,0 c -0.45296,-0.45296 -0.19665,-1.07333 0.44347,-1.07333 0.44735,0 0.62976,0.17377 0.56,0.53348 -0.11422,0.58895 -0.66048,0.88283 -1.00347,0.53985 z m 2.80277,-0.14121 c -0.3011,-0.4872 0.35277,-1.05603 0.95033,-0.82673 0.28749,0.11033 0.4167,0.39732 0.30727,0.6825 -0.21839,0.56913 -0.94359,0.6523 -1.2576,0.14423 z m 7.36,0 c -0.3011,-0.4872 0.35277,-1.05603 0.95033,-0.82673 0.28749,0.11033 0.4167,0.39732 0.30727,0.6825 -0.21839,0.56913 -0.94359,0.6523 -1.2576,0.14423 z m -17.6353,-0.79363 c -0.26671,-0.69503 0.41038,-1.34865 0.89502,-0.864 0.40962,0.40961 0.15586,1.36551 -0.36249,1.36551 -0.18704,0 -0.42668,-0.22568 -0.53253,-0.50151 z m 20.72777,0.064 c -0.27664,-0.33334 -0.24463,-0.53589 0.13438,-0.85044 0.61162,-0.5076 1.29412,0.0276 1.00292,0.78647 -0.23703,0.61767 -0.65811,0.64136 -1.1373,0.064 z m -6.05432,-1.08246 c 0.0593,-0.308 0.3199,-0.56 0.57908,-0.56 0.25919,0 0.51977,0.252 0.57909,0.56 0.0757,0.39291 -0.0971,0.56 -0.57909,0.56 -0.48196,0 -0.65474,-0.16709 -0.57908,-0.56 z m -17.660915,-0.72 c 0,-0.48197 0.16709,-0.65475 0.56,-0.57908 0.308,0.0593 0.559995,0.3199 0.559995,0.57908 0,0.25918 -0.251995,0.51976 -0.559995,0.57908 -0.39291,0.0757 -0.56,-0.0971 -0.56,-0.57908 z m 5.119995,0.0234 c 0,-0.45794 0.20552,-0.66345 0.66347,-0.66345 0.82004,0 0.72701,1.05914 -0.10714,1.21979 -0.384,0.0739 -0.55633,-0.0984 -0.55633,-0.55633 z m 9.82,0.40988 c -0.45296,-0.45296 -0.19665,-1.07333 0.44347,-1.07333 0.44735,0 0.62976,0.17377 0.56,0.53348 -0.11422,0.58895 -0.66048,0.88283 -1.00347,0.53985 z m -6.83253,-0.93485 c -0.2912,-0.75886 0.3913,-1.29407 1.00292,-0.78647 0.37901,0.31455 0.41102,0.51711 0.13438,0.85044 -0.47919,0.57739 -0.90028,0.55371 -1.1373,-0.064 z m 3.78334,0.0827 c -0.43494,-0.52407 -0.17421,-0.86122 0.66599,-0.86122 0.39757,0 0.57408,0.18586 0.50667,0.53348 -0.13774,0.7102 -0.72016,0.87297 -1.17266,0.32774 z m 8.92192,-0.68588 c -0.55616,-0.67014 -1.3e-4,-1.33918 0.75961,-0.914 0.43338,0.24253 0.44813,0.37776 0.094,0.86205 -0.38682,0.52902 -0.45427,0.53312 -0.85361,0.052 z m -17.87251,-1.05166 c 0.16064,-0.83415 1.21978,-0.92718 1.21978,-0.10713 0,0.45794 -0.20551,0.66346 -0.66346,0.66346 -0.45795,0 -0.63028,-0.17233 -0.55632,-0.55633 z m 14.87312,0.34299 c -0.4405,-0.4405 -0.19004,-1.06666 0.42666,-1.06666 0.42667,0 0.64,0.21333 0.64,0.64 0,0.6167 -0.62616,0.86717 -1.06666,0.42666 z m -11.94587,-0.92818 c -0.23094,-0.60183 0.33534,-1.25813 0.82465,-0.95572 0.52746,0.32599 0.4171,1.45723 -0.14216,1.45723 -0.26952,0 -0.57664,-0.22568 -0.68249,-0.50151 z m 9.07253,0.29485 c -0.45296,-0.45296 -0.19665,-1.07333 0.44347,-1.07333 0.44735,0 0.62976,0.17377 0.56,0.53348 -0.11422,0.58895 -0.66048,0.88283 -1.00347,0.53985 z m -2.9946,-0.94024 c -0.2293,-0.59756 0.33953,-1.25143 0.82672,-0.95033 0.50808,0.31401 0.42491,1.0392 -0.14423,1.2576 -0.28517,0.10943 -0.57217,-0.0198 -0.68249,-0.30727 z m -3.15168,-0.14326 c -0.12427,-0.20108 -0.0898,-0.50178 0.0767,-0.66821 0.38865,-0.38866 1.43475,0.003 1.27663,0.4778 -0.16752,0.50319 -1.08058,0.63165 -1.35329,0.19041 z m 31.64101,23.71992 c -2.24005,-1.05973 -2.41949,-1.39538 -2.97929,-5.57291 -0.65512,-4.88885 -0.23422,-16.43723 0.70373,-19.30828 0.51231,-1.56818 1.38564,-1.73871 2.57054,-0.50194 l 0.87398,0.91224 0.12606,8.94057 c 0.14204,10.07492 0.3725,12.94057 1.04071,12.94057 0.24286,0 1.47196,-0.36 2.73134,-0.8 2.7476,-0.95996 2.86268,-0.96569 3.81997,-0.19053 l 0.75267,0.60948 -0.63722,0.70506 c -1.0114,1.11909 -2.30197,1.93635 -4.08943,2.58969 -2.18646,0.79919 -2.59609,0.77217 -4.91306,-0.32394 z m 11.88528,-3.04331 c -1.26217,-0.56338 -2.56603,-1.97912 -3.18303,-3.45616 -1.29305,-3.09548 0.0669,-8.79332 2.69473,-11.29028 1.28556,-1.22154 3.18304,-1.31916 4.69484,-0.24154 1.09755,0.78234 1.39346,0.56458 1.39346,-1.02545 0,-1.2225 0.74165,-1.58058 1.97701,-0.95453 2.13906,1.08402 2.18199,1.18327 2.19346,5.07111 0.0106,3.6058 0.40745,7.755 0.77701,8.12456 0.45552,0.45552 1.3578,-0.56992 2.48732,-2.82681 1.1622,-2.32222 1.19494,-2.48387 1.2,-5.92618 0.004,-2.41445 0.13908,-3.72193 0.42657,-4.1151 0.40096,-0.54835 0.50171,-0.53555 2.08,0.26423 l 1.65863,0.84049 v 2.87461 c 0,1.58103 0.12488,2.87461 0.27752,2.87461 0.15263,0 0.72594,-1.18812 1.27401,-2.64026 0.54808,-1.45214 1.22336,-2.96414 1.50063,-3.36 1.24741,-1.78093 3.1225,-0.18742 4.61296,3.92026 1.43792,3.96285 1.65693,4.14049 2.82804,2.29384 0.51577,-0.81328 1.03106,-2.1661 1.14508,-3.00627 0.60299,-4.44303 2.63138,-7.76757 4.7392,-7.76757 2.04026,0 3.55551,2.1825 3.39875,4.89541 -0.0808,1.39763 -0.20166,1.67968 -0.75385,1.75867 -0.36171,0.0517 -0.91809,-0.19368 -1.23639,-0.5454 -0.48781,-0.53902 -0.52274,-0.80012 -0.22234,-1.66184 0.54822,-1.57264 0.464,-2.5939 -0.20361,-2.46901 -0.89186,0.16682 -1.74121,3.19811 -1.91154,6.82217 -0.17376,3.69685 0.13484,4.84322 1.38845,5.15786 1.3646,0.34249 2.84684,-0.6813 4.28635,-2.96061 2.12439,-3.36373 2.18268,-3.66092 2.34525,-11.95725 0.15203,-7.75855 0.53169,-10.64098 1.72229,-13.07591 0.54993,-1.12469 0.62489,-1.16269 2.21455,-1.12265 2.10637,0.053 3.51728,0.87332 3.99572,2.32301 0.63225,1.91572 0.14616,6.44772 -1.1536,10.75555 -1.48317,4.91572 -2.36897,9.82295 -2.16199,11.97711 l 0.16089,1.67434 0.8704,-2.66572 c 1.08288,-3.31646 3.34442,-8.54407 3.96457,-9.16423 0.55757,-0.55755 1.71288,-0.33236 2.79819,0.54544 0.73264,0.59255 0.76381,0.79467 0.8518,5.52406 0.10585,5.6898 0.13849,5.8654 1.00422,5.40208 1.17143,-0.62693 2.5689,-4.08454 2.72136,-6.73316 0.18334,-3.18507 0.53625,-4.04607 1.76946,-4.31693 0.6316,-0.13872 1.15424,-0.54404 1.45736,-1.13021 0.67468,-1.30468 1.69973,-1.91278 3.22432,-1.91278 1.77247,0 2.86203,0.9057 4.01082,3.334 0.70823,1.49703 0.92068,2.40742 0.92087,3.946 1.4e-4,1.1 0.14199,2 0.31521,2 0.17322,0 0.78522,-0.42022 1.36,-0.93381 l 1.04505,-0.93381 0.0114,-3.70616 c 0.0145,-4.70306 0.23147,-5.02418 2.5486,-3.77133 l 1.6,0.86511 0.16,3.03585 0.16,3.03584 0.60623,-1.43584 c 1.63671,-3.87656 2.44501,-5.46025 2.87013,-5.62338 0.25623,-0.0983 0.88453,0.0377 1.39621,0.30232 0.95081,0.49168 1.23393,1.01 2.90875,5.32521 0.51232,1.32 1.11893,2.4 1.34803,2.4 0.73192,0 2.17409,-2.80966 2.6748,-5.21106 0.62143,-2.9804 1.88711,-5.33655 3.14705,-5.85843 1.13328,-0.46942 2.65781,-0.0453 4.32881,1.20432 0.93005,0.69552 1.04,0.94625 1.04,2.37173 0,2.97782 -1.47976,5.28431 -3.60859,5.62472 -1.23042,0.19675 -1.24318,0.21333 -1.04191,1.35395 0.61831,3.50427 3.60965,3.82781 5.91876,0.64018 1.649,-2.27637 1.95959,-3.79791 1.86058,-9.11462 l -0.0888,-4.77079 -1.36,-0.0984 c -1.31757,-0.0953 -1.36,-0.13277 -1.36,-1.2 0,-1.0285 0.069,-1.10193 1.04,-1.1065 0.572,-0.003 1.19831,-0.1107 1.39179,-0.24 0.19349,-0.12931 0.43898,-1.30139 0.54554,-2.60464 0.10655,-1.30324 0.33371,-2.5095 0.50477,-2.68057 0.45103,-0.45103 1.75924,-0.0357 2.89324,0.91846 0.87738,0.73827 0.98466,1.01823 0.98466,2.56967 v 1.74114 l 1.68,-0.0896 c 1.67324,-0.0892 1.68,-0.0857 1.68,0.87043 0,0.9062 -0.0844,0.96971 -1.50655,1.13321 -0.8286,0.0953 -1.6206,0.28773 -1.76,0.4277 -0.1394,0.13995 -0.25626,4.98482 -0.2597,10.76636 -0.003,5.78155 -0.10474,10.61038 -0.2251,10.73074 -0.36769,0.3677 -1.86165,-0.16192 -2.63322,-0.93349 -0.57487,-0.57486 -0.77807,-1.24822 -0.95884,-3.17726 l -0.22937,-2.44781 -1.02711,1.34662 c -1.93515,2.53715 -4.09791,3.4677 -6.53461,2.81157 -1.75345,-0.47216 -3.07549,-1.63712 -3.74094,-3.29645 l -0.54588,-1.36119 -0.62389,1.21345 c -0.73886,1.43709 -1.81641,1.95457 -3.07421,1.47636 -1.45161,-0.55191 -2.03707,-1.27469 -3.43046,-4.2351 -1.01388,-2.15408 -1.41005,-2.72424 -1.66762,-2.4 -0.54005,0.67987 -1.31892,3.36329 -2.0274,6.98492 -0.36147,1.8478 -0.83224,3.52936 -1.04616,3.73682 -0.29881,0.28978 -0.67193,0.27838 -1.61013,-0.0492 -1.80922,-0.63172 -2.37895,-1.30325 -2.6253,-3.09443 -0.18146,-1.3194 -0.31083,-1.55666 -0.74651,-1.36913 -0.28985,0.12476 -0.92623,0.29528 -1.41419,0.37895 -0.70054,0.12012 -1.0288,0.48133 -1.5604,1.71707 -1.70953,3.9739 -5.49333,4.87271 -8.3763,1.98974 -0.64686,-0.64686 -1.17611,-1.29611 -1.17611,-1.44278 0,-0.57513 -0.58099,-0.22604 -0.75449,0.45334 -0.29942,1.17252 -2.05941,3.05463 -3.06244,3.27493 -1.10022,0.24165 -3.3364,-0.77084 -3.85896,-1.74725 -0.18551,-0.34662 -0.50075,-1.78615 -0.70055,-3.19895 -0.1998,-1.4128 -0.4714,-2.56873 -0.60355,-2.56873 -0.35145,0 -2.01395,4.23176 -2.85246,7.26072 -0.39903,1.44139 -0.92509,2.69731 -1.16903,2.79092 -0.75263,0.2888 -2.74406,-0.5667 -3.41072,-1.46523 -0.34833,-0.46948 -0.80568,-1.53237 -1.01632,-2.36199 l -0.383,-1.50839 -0.97695,1.73106 c -1.23153,2.18215 -3.20143,3.97781 -4.8511,4.42202 -1.02604,0.27628 -1.53002,0.24185 -2.57406,-0.1759 -1.36261,-0.54521 -3.22637,-2.38469 -3.22637,-3.18435 0,-0.71437 -0.50625,-0.56065 -1.09058,0.33114 -0.81296,1.24074 -3.08515,1.00122 -4.29046,-0.45227 -0.23157,-0.27925 -0.99602,-1.699 -1.69879,-3.155 -0.70278,-1.456 -1.40941,-2.56591 -1.57029,-2.46648 -0.42428,0.26222 -1.48759,3.87693 -2.09282,7.11452 -0.2878,1.53957 -0.65744,3.05123 -0.82143,3.35923 -0.60328,1.1331 -3.06026,0.29848 -4.08583,-1.38792 l -0.5819,-0.95685 -0.41084,0.99186 c -0.52201,1.26023 -2.20186,2.55291 -3.31755,2.55291 -1.59702,0 -3.00408,-0.83764 -3.70066,-2.20305 -0.36237,-0.7103 -0.65885,-1.65719 -0.65885,-2.1042 0,-1.19882 -0.53374,-0.98767 -0.97887,0.38725 -0.21368,0.66 -0.72865,1.87883 -1.14439,2.70851 -1.08241,2.16016 -2.13857,2.60091 -4.11674,1.71793 z m 1.89923,-2.9314 c 0.82682,-0.82681 1.06473,-1.46421 1.60029,-4.28746 0.33741,-1.77867 0.72496,-2.88915 1.14479,-3.28028 0.59642,-0.55565 0.60326,-0.6393 0.11354,-1.38672 -1.50952,-2.30382 -3.06624,-1.21984 -4.16391,2.89942 -0.75118,2.81901 -0.4578,6.56 0.51446,6.56 0.15723,0 0.51311,-0.22723 0.79083,-0.50496 z m 64.085,-6.93504 c 0.74412,-0.81697 1.37577,-1.94959 1.37577,-2.46689 0,-0.19192 -0.35125,-0.48249 -0.78055,-0.64571 -1.10134,-0.41874 -1.54931,-1.36219 -1.00211,-2.11053 0.36953,-0.50537 0.5542,-0.53612 1.2676,-0.21107 l 0.83506,0.38048 v -1.76342 c 0,-0.96988 -0.20866,-2.26279 -0.46367,-2.87314 -0.40431,-0.96763 -0.60758,-1.10972 -1.58754,-1.10972 -1.23924,0 -2.55493,1.0831 -2.3354,1.92256 0.0699,0.26717 0.0177,1.41292 -0.11591,2.54612 -0.39632,3.36122 0.51118,7.05132 1.73411,7.05132 0.22927,0 0.71195,-0.324 1.07264,-0.72 z m 28.9118,-10.51142 c 0.82813,-1.62327 1.00776,-3.96858 0.30397,-3.96858 -0.68038,0 -1.92,2.62632 -1.92,4.0678 0,1.64339 0.75053,1.5973 1.61603,-0.0992 z m -47.49964,-3.74862 c 0.92138,-3.34893 1.29826,-7.83366 0.77145,-9.17996 -0.34681,-0.88628 -0.4078,-0.91623 -0.79434,-0.39001 -0.57035,0.77649 -1.08218,4.45643 -1.30701,9.3972 -0.2145,4.71379 0.0704,4.7508 1.3299,0.17277 z m 64.44361,10.9205 c -1.52411,-0.77978 -1.88726,-1.15779 -2.70949,-2.82046 -0.79737,-1.61239 -0.94956,-2.30451 -0.94994,-4.32 -6.4e-4,-4.25145 2.08747,-8.64 4.1113,-8.64 1.19794,0 3.6671,1.23989 4.25452,2.13641 0.61146,0.93321 0.41365,3.67648 -0.37509,5.20173 -0.59865,1.15765 -2.21931,2.25891 -3.32691,2.26066 -0.69743,9.6e-4 -0.73927,0.0936 -0.54338,1.2012 0.47884,2.70731 2.26953,3.6348 4.34929,2.25271 0.81701,-0.54293 1.51848,-1.56355 2.65952,-3.8695 1.27545,-2.57757 1.62953,-3.06593 2,-2.75846 1.47767,1.22635 -1.14514,7.22927 -3.97231,9.09158 -1.89777,1.25009 -3.4268,1.32355 -5.49751,0.26413 z m 2.19076,-9.46046 c 0.35632,-0.748 0.74491,-1.89848 0.86352,-2.55662 0.17495,-0.97066 0.10969,-1.23729 -0.34558,-1.412 -0.92946,-0.35666 -1.59286,0.94381 -2.18774,4.28862 -0.15492,0.87106 -0.0869,1.04 0.41849,1.04 0.39499,0 0.82726,-0.46982 1.25131,-1.36 z" id="path2678"/>
      </g>
    </g>
  </g>
</svg>