<svg xmlns:inkscape="http://www.inkscape.org/namespaces/inkscape" xmlns:sodipodi="http://sodipodi.sourceforge.net/DTD/sodipodi-0.dtd" xmlns="http://www.w3.org/2000/svg" xmlns:svg="http://www.w3.org/2000/svg" version="1.1" id="svg824" sodipodi:docname="logo-sem-fundo.svg" inkscape:version="1.1.1 (3bf5ae0d25, 2021-09-20)" viewBox="0.65 0 332.61 259.96">
  <defs id="defs828"/>
  <sodipodi:namedview id="namedview826" pagecolor="#505050" bordercolor="#eeeeee" borderopacity="1" inkscape:pageshadow="0" inkscape:pageopacity="0" inkscape:pagecheckerboard="0" showgrid="false" inkscape:zoom="2.1744184" inkscape:cx="237.76473" inkscape:cy="141.41712" inkscape:window-width="2560" inkscape:window-height="1009" inkscape:window-x="-8" inkscape:window-y="-8" inkscape:window-maximized="1" inkscape:current-layer="g1340"/>
  <g inkscape:groupmode="layer" inkscape:label="Image" id="g830">
    <g id="g1340" transform="translate(2.2994662,0.9197862)">
      <path id="path1348" style="fill:#fbf7f7;stroke-width:0.32" d="m 2.638476,9.955775 c -0.10252,0.03579 -0.15972,0.186894 -0.22461,0.400391 -0.45236,1.488314 -0.42397,34.121505 0.0352,40.246094 1.06437,14.200253 2.29746,24.740399 4.23047,36.160156 7.27527,42.980584 20.95448,79.536394 39.1543,104.640624 18.15926,25.04829 44.25679,42.03321 80.363284,52.30273 20.65512,5.87479 46.53794,9.64282 72.50977,10.55469 10.34112,0.36337 14.37536,0.36841 23.65039,0.0234 42.52529,-1.57892 70.88474,-9.2603 85.70312,-23.21484 10.22533,-9.62924 15.68742,-22.36113 18.32227,-42.70704 0.87133,-6.72805 1.21464,-23.71991 0.63281,-31.31836 -0.97612,-12.74842 -3.21893,-24.87242 -6.43554,-34.78906 -7.92046,-24.418473 -21.57799,-37.699932 -43.03125,-41.843747 -11.24992,-2.172978 -23.47403,-2.260215 -48.79102,-0.351562 -38.63143,2.912432 -42.09859,3.097303 -57.91992,3.095703 -24.69689,-0.0023 -47.4654,-2.305212 -68.96094,-6.976562 C 75.893406,70.532398 56.176386,62.288657 40.261526,50.418666 28.208636,41.429098 19.944356,32.638282 6.200976,14.19015 3.660906,10.78054 2.946046,9.848402 2.638476,9.955775 Z m 3.23828,10.605469 3.92774,5.015625 c 13.85193,17.686162 26.06124,28.522734 42.4414,37.667969 32.65789,18.233281 87.418944,27.240977 143.923834,23.675781 3.05113,-0.192476 13.0355,-0.91257 22.1875,-1.601562 9.152,-0.688992 18.94377,-1.398133 21.75977,-1.576172 30.94511,-1.95647 46.4593,0.946854 58.98632,11.039062 9.07861,7.314043 15.90228,19.788583 20.17383,36.882813 3.12477,12.50488 4.83443,28.97115 4.375,42.13672 -1.06803,30.60484 -8.24662,48.08253 -24.12109,58.72656 -3.4897,2.33988 -11.32897,6.09417 -16.28321,7.79688 -14.06277,4.8332 -29.01325,7.48516 -50.6582,8.98828 v 0.002 c -8.56131,0.59454 -25.94627,0.84397 -34.23242,0.49219 C 132.9817,247.03113 86.493846,230.52996 58.189256,200.05148 43.861046,184.62282 32.156566,163.53553 22.990036,136.63351 11.628216,103.28866 5.388406,64.455406 5.777146,29.50265 Z m 87.35938,77.248047 c -11.52668,-0.01571 -22.5471,4.968839 -28.50196,12.890629 -5.44683,7.24589 -5.91314,15.49673 -1.1875,21.01757 2.44351,2.8547 5.45259,4.00312 9.88086,3.77149 l 2.97852,-0.15625 -0.43164,0.83398 c -2.68177,5.1915 -13.45139,27.74451 -14.07617,29.47656 -1.60245,4.44236 -0.93391,5.64713 2.97851,5.36719 2.74007,-0.19605 4.95198,-1.33505 7.0293,-3.62304 2.0618,-2.27093 9.61754,-15.01006 20.19531,-34.04493 6.79845,-12.23392 8.335944,-15.62814 8.335944,-18.4082 0,-2.8877 -1.551664,-3.69341 -7.109384,-3.69141 -3.35434,0.001 -4.0845,0.0952 -4.97265,0.63672 -1.06577,0.64981 -1.09879,0.71191 -6.79493,12.70508 l -1.70117,3.58008 -1.15039,-0.58984 c -5.56908,-2.85649 -5.43241,-11.94454 0.26563,-17.64258 2.02911,-2.02911 5.2866,-3.83705 8.43359,-4.6836 2.88657,-0.7765 9.47372,-0.67354 12.808604,0.20118 6.42891,1.68627 10.43909,5.7497 11.93359,12.09179 0.86283,3.66157 0.4743,10.06329 -0.94141,15.50586 -3.54065,13.61178 -11.430404,27.04563 -20.363284,34.67383 -6.92752,5.91573 -13.389,8.90587 -20.16797,9.33203 -3.60244,0.22647 -5.92023,-0.18161 -8.58984,-1.51562 -6.53924,-3.2677 -9.70724,-11.8069 -7.5293,-20.29493 0.86773,-3.38183 2.55824,-6.13482 5.63281,-9.16796 2.06763,-2.03983 2.80469,-2.98129 2.80469,-3.58204 0,-1.28107 -1.07923,-1.81054 -3.6914,-1.81054 -5.74166,0 -11.73502,3.53975 -15.48633,9.14843 -2.21742,3.31532 -2.94993,5.77595 -3.14063,10.54883 -0.17568,4.39695 0.39944,7.21313 2.20508,10.79883 3.9638,7.87149 11.66575,13.30078 20.91406,14.74414 2.17096,0.33882 11.27585,-0.12759 14.28907,-0.73242 13.25499,-2.66064 25.622224,-10.55874 34.255864,-21.87695 5.64382,-7.39876 10.1009,-16.99739 12.14453,-26.15039 0.6544,-2.93113 0.74867,-4.17861 0.73437,-9.76172 -0.0143,-5.59058 -0.10556,-6.72275 -0.72461,-8.95899 -2.70214,-9.76101 -9.64711,-16.58622 -19.57422,-19.238278 -2.78251,-0.74335 -8.193044,-1.389731 -11.685544,-1.394531 z m 55.865234,0.333984 -1.17578,0.492188 c -2.01864,0.84344 -5.12512,2.962287 -6.44531,4.394527 -4.8683,5.28147 -5.05897,11.28227 -0.62696,19.75391 2.50775,4.79349 2.65819,8.26506 0.47852,10.98242 l -0.99805,1.2461 1.23633,-0.23243 c 2.68333,-0.5034 5.11732,-2.23164 6.33203,-4.49804 0.5383,-1.00435 0.6783,-1.79653 0.6543,-3.67969 -0.0266,-2.08733 -0.24429,-2.95287 -1.67969,-6.64453 -2.20277,-5.66521 -2.69089,-7.86263 -2.53515,-11.43555 0.14706,-3.37711 1.01312,-5.60083 3.32617,-8.54883 z m -13.27148,9.984375 c -0.24419,-0.24418 -2.71734,3.2727 -3.4375,4.88867 -0.9218,2.06849 -0.94809,4.8873 -0.0625,6.87305 0.35482,0.7956 1.66861,2.54905 2.91796,3.89648 2.49542,2.6913 2.97821,3.91971 2.39844,6.0918 l -0.32422,1.2207 0.9961,-0.76172 c 1.39091,-1.06383 2.42759,-2.99949 2.43359,-4.54687 0.006,-1.58878 -0.66231,-2.93564 -2.69531,-5.42578 -3.04126,-3.72511 -3.8825,-7.17241 -2.60547,-10.69141 0.28139,-0.77546 0.45291,-1.47092 0.37891,-1.54492 z m 151.38867,0.61328 c -1.46561,-0.1211 -3.40492,0.4972 -8.0625,2.57227 -4.57256,2.03714 -10.29807,3.96533 -13.11914,4.41601 -1.232,0.19682 -2.63509,0.50902 -3.11719,0.69336 -1.36028,0.52012 -3.12305,2.6546 -3.12305,3.78125 v 0.95899 h 4.96094 c 2.728,0 4.95887,0.0802 4.95899,0.17968 0,0.0995 -1.82364,3.23248 -4.05274,6.96094 -5.23306,8.75297 -8.70452,15.83183 -10.51953,21.45508 -0.78775,2.44059 -1.52149,4.99767 -1.63086,5.68164 -0.17242,1.07826 -0.43298,1.39046 -1.95703,2.34375 -1.94284,1.21526 -5.76117,2.92439 -6,2.68555 -0.0838,-0.0838 0.21101,-1.58259 0.6543,-3.33008 1.00801,-3.97367 1.42015,-8.97535 1.1914,-14.44336 -0.20189,-4.82608 -0.0193,-5.38562 2.11914,-6.47656 1.33999,-0.68361 1.63477,-1.15701 1.63477,-2.625 0,-2.43138 -1.07902,-2.83206 -7.625,-2.83203 -7.55444,0 -7.13153,-0.32416 -15.13281,11.60156 -2.80487,4.1806 -5.59731,8.59171 -6.20508,9.80273 -1.03454,2.06141 -2.07617,5.29018 -2.07617,6.43555 0,1.02394 -4.94074,3.51953 -6.9668,3.51953 -3.19066,0 -2.89091,-1.14484 3.71094,-14.24023 6.80044,-13.48934 7.0957,-14.12901 7.0957,-15.35547 0,-2.1884 -2.4639,-2.58632 -7.65234,-1.23633 -3.42165,0.89028 -3.817,1.42655 -7.69532,10.44726 -3.03229,7.05291 -6.35229,13.45638 -8.375,16.1504 -1.51336,2.01562 -3.30748,3.27229 -4.97461,3.48632 -1.83333,0.23536 -2.51527,-0.41688 -2.45117,-2.3457 0.10904,-3.2811 2.83022,-9.16159 8.94727,-19.32812 2.42277,-4.02666 3.96092,-6.91329 3.96094,-7.4336 0,-1.49034 -1.10241,-1.90839 -4.04493,-1.5332 -3.42758,0.43704 -5.20761,1.109 -6.66797,2.51758 -3.08174,2.97246 -8.8601,13.67392 -11.05664,20.47265 l -1.32031,4.08594 -2.33789,1.68164 c -1.28577,0.92474 -3.72474,2.40937 -5.41797,3.30078 -3.48683,1.83563 -3.34564,2.11019 -1.32617,-2.58984 0.64279,-1.496 3.31419,-6.82385 5.93555,-11.83985 5.03285,-9.63043 7.14312,-13.98781 7.48437,-15.44726 0.1626,-0.69537 0.0276,-1.06617 -0.625,-1.71875 -0.79252,-0.79253 -0.94077,-0.82131 -3.12695,-0.61133 -4.64077,0.44575 -6.7079,1.29327 -7.91602,3.24805 -0.38029,0.61532 -0.78195,1.07563 -0.89453,1.02343 -0.11258,-0.0522 -1.21115,-0.59884 -2.43945,-1.21484 -2.11912,-1.06274 -2.39661,-1.11816 -5.43945,-1.10156 -2.69933,0.0147 -3.55391,0.15297 -5.4043,0.8789 -3.25418,1.27694 -5.66409,2.86237 -8.64453,5.6836 -4.2386,4.01218 -7.49333,9.2475 -8.8711,14.26953 -0.91945,3.35142 -0.77519,9.36799 0.28125,11.72266 l 0.6875,1.5332 -0.80468,0.30664 c -4.30039,1.63501 -7.55131,4.33339 -9.16407,7.60937 -0.94725,1.92421 -1.04692,2.39663 -1.04492,5.01172 0.001,2.25486 0.14877,3.20624 0.67383,4.34375 1.33127,2.88409 3.98821,5.09481 7.14258,5.94532 2.01228,0.54257 5.86145,0.52296 8.25976,-0.043 4.71281,-1.11119 9.29026,-3.99046 12.23438,-7.69532 1.86751,-2.35006 5.01827,-7.22312 5.99414,-9.26953 0.40059,-0.84004 0.91634,-1.24169 2.30469,-1.79297 2.47559,-0.98294 7.22771,-3.36265 9.14843,-4.58203 0.88,-0.55867 1.76954,-1.11782 1.97657,-1.24218 0.25696,-0.15435 0.49552,0.34449 0.75,1.57031 1.34992,6.50249 9.59777,6.54667 15.99414,0.0859 2.13896,-2.16028 2.22308,-2.20917 2.38867,-1.41602 0.0943,0.45193 0.23982,1.14697 0.32422,1.54297 0.3093,1.45207 1.44991,2.7898 3.11523,3.65625 1.39643,0.72654 2.11051,0.88358 4.0918,0.89258 2.11368,0.01 2.68709,-0.12805 4.80078,-1.14649 1.32,-0.63601 3.61186,-2.02757 5.09375,-3.09375 l 2.69336,-1.93945 0.98633,1.64258 c 1.9947,3.32257 5.38606,4.92762 9.76953,4.62305 2.73492,-0.19006 5.59826,-1.09699 7.51562,-2.37891 0.71555,-0.47841 2.59569,-1.19512 4.17969,-1.59375 1.60611,-0.4042 4.39829,-1.47568 6.31055,-2.42188 l 3.42773,-1.69726 0.31446,1.46094 c 0.47298,2.2054 0.84469,3.00981 2.0039,4.33007 1.34712,1.53429 3.18529,2.36991 5.23633,2.37891 7.82891,0.0341 18.57165,-8.77804 24.30078,-19.93359 1.60063,-3.1167 1.73849,-3.94883 0.83985,-5.0586 -0.59157,-0.73055 -0.63565,-0.73738 -1.71094,-0.22461 -0.76004,0.36244 -1.65883,1.35881 -2.88281,3.19532 -4.62495,6.9395 -10.49351,11.7871 -14.26563,11.7871 -2.17814,5e-5 -2.61328,-0.56374 -2.61328,-3.38671 0,-3.98592 2.46869,-12.15568 5.48633,-18.15235 1.09166,-2.16933 5.45519,-9.52461 9.0039,-15.17968 l 2.25977,-3.59961 h 7.31641 c 8.54423,0 8.45926,0.0232 12.07812,-3.39063 2.10793,-1.98851 3.85547,-4.66931 3.85547,-5.91406 0,-1.18526 -0.81441,-1.38041 -3.44727,-0.82422 -2.30796,0.48753 -12.89058,2.12879 -13.73046,2.12891 -0.20811,3e-5 0.12093,-0.74369 0.73242,-1.65235 1.37936,-2.04969 1.31828,-2.63638 -0.29297,-2.76953 z m -50.30274,30.30469 -0.084,4.89844 c -0.19331,11.10954 -1.31198,15.83218 -4.23438,17.875 -2.02975,1.41884 -4.49989,0.83222 -5.62109,-1.33594 -0.4385,-0.84797 -0.40272,-0.94701 0.82813,-2.36914 3.00984,-3.4776 5.49948,-7.89896 5.55078,-9.85742 0.0246,-0.93601 -0.15077,-1.3854 -0.7168,-1.84375 l -0.74805,-0.60743 1.79297,-2.48242 c 0.98557,-1.36503 2.11507,-2.8848 2.51172,-3.3789 z m -70.49804,2.05859 c 1.56868,-0.1619 4.09961,0.29647 4.09961,0.74219 0,0.50324 -3.19449,7.81933 -4.65625,10.66406 -2.07034,4.02907 -3.67445,6.20988 -5.51563,7.50391 -1.08723,0.76413 -1.7791,0.98474 -3.42969,1.08984 -2.00359,0.12758 -2.10271,0.0965 -3.16797,-0.96875 -2.92312,-2.92312 -1.28143,-8.73742 3.9668,-14.04492 3.11168,-3.14682 5.79841,-4.68654 8.70313,-4.98633 z m -13.12696,29.50781 c 2.40533,-0.006 4.47808,0.0953 4.60743,0.22461 0.39694,0.39695 -2.07222,3.80176 -4.4961,6.19922 -1.5196,1.50304 -3.03362,2.63529 -4.46875,3.3418 -4.64839,2.2884 -8.49609,1.15664 -8.49609,-2.49805 0,-1.29505 1.61651,-3.67983 3.25,-4.79492 2.89456,-1.97594 4.77955,-2.46116 9.60351,-2.47266 z"/>
      <path style="fill:#fbe30e;stroke-width:0.32" d="m 124.25809,231.59764 c -2.03013,-0.92212 -3.53116,-2.93401 -4.45935,-5.97706 -0.95193,-3.1209 -0.95345,-3.14558 -0.26536,-4.31043 0.50618,-0.85689 0.50355,-0.98494 -0.0454,-2.20221 -0.32054,-0.71082 -0.83139,-1.37131 -1.13522,-1.46775 -0.30384,-0.0964 -0.81446,-0.46487 -1.13472,-0.81876 -0.51786,-0.57222 -0.53622,-0.77494 -0.16593,-1.83183 0.22899,-0.65362 0.89093,-1.6924 1.47097,-2.3084 0.86478,-0.91841 1.11552,-1.52095 1.39303,-3.34752 1.13518,-7.4716 8.20427,-12.96512 16.67981,-12.9622 5.36384,0.002 9.83171,1.80545 13.08344,5.28155 2.49494,2.66711 3.52266,4.82147 3.85026,8.07116 0.20602,2.04365 0.43308,2.79348 1.11772,3.69108 0.47254,0.61954 0.94251,1.64005 1.04439,2.2678 0.15653,0.96462 0.0303,1.31782 -0.8153,2.28088 -1.07708,1.22673 -1.26999,2.41568 -0.62252,3.83673 0.30275,0.66445 0.27813,1.12927 -0.12368,2.33505 -0.27591,0.82801 -0.67319,2.13551 -0.88284,2.90556 -0.4934,1.81231 -2.86884,4.22836 -4.68859,4.76877 -0.92689,0.27525 -4.52961,0.38906 -12.16,0.38411 -9.84115,-0.006 -10.96278,-0.0615 -12.14074,-0.59653 z m 25.09444,-1.72925 c 1.40309,-0.92901 2.60017,-2.54239 2.60223,-3.50719 0.001,-0.52549 -0.93549,-0.56 -15.19881,-0.56 -13.51426,0 -15.2,0.055 -15.2,0.49589 0,0.73799 0.79332,2.12522 1.69926,2.97139 1.67167,1.56137 2.4648,1.65021 14.00483,1.56865 l 10.74408,-0.0759 z m -12.43658,-6.30713 c -1.72635,-1.35025 -2.6426,-1.54522 -9.05009,-1.92574 -6.78874,-0.40317 -7.26991,-0.33031 -7.26991,1.10086 0,1.41151 0.32945,1.4652 8.944,1.4577 8.17381,-0.007 8.17579,-0.007 7.376,-0.63282 z m 15.616,0.25594 c 0.61582,-0.61582 0.45101,-1.79762 -0.30727,-2.20344 -0.52596,-0.28149 -2.02941,-0.26882 -6.28659,0.0529 -5.31906,0.40204 -5.63252,0.46303 -6.34873,1.23543 -0.41437,0.44689 -0.75341,0.92199 -0.75341,1.05579 0,0.42861 13.26295,0.29233 13.696,-0.14073 z m -12.57768,-4.09362 c 0.99132,-1.40669 1.71274,-2.70269 1.60316,-2.88 -0.34053,-0.55099 -1.74316,-0.35508 -2.74132,0.38289 -1.36354,1.0081 -4.50186,1.16483 -6.14604,0.30693 -0.66323,-0.34607 -1.49958,-0.55241 -1.85854,-0.45853 -0.51638,0.13503 0.13628,0.69626 3.12589,2.68799 2.07819,1.38453 3.87662,2.51755 3.99649,2.51783 0.11988,2.8e-4 1.02904,-1.15042 2.02036,-2.55711 z m -9.45615,-0.18091 c -1.96968,-1.4628 -2.99021,-1.95628 -4.87792,-2.35876 -1.62472,-0.3464 -2.05298,-0.32474 -3.44,0.17403 -0.87133,0.31333 -1.58425,0.66929 -1.58425,0.79102 0,0.12174 0.27307,0.55856 0.60683,0.97073 0.53231,0.65738 0.97433,0.77325 3.6,0.94369 1.64624,0.10686 3.84915,0.21759 4.89534,0.24606 l 1.90217,0.0518 z m 21.37783,0.27937 c 1.16986,-0.27658 0.90827,-1.26655 -0.39035,-1.47729 -0.6107,-0.0991 -1.8707,-0.56348 -2.8,-1.03195 -1.2961,-0.65338 -2.00637,-0.81666 -3.04947,-0.70102 -1.58869,0.17614 -2.03219,0.49553 -3.35224,2.41416 l -0.97805,1.42155 4.92506,-0.22761 c 2.70878,-0.12519 5.24905,-0.30421 5.64505,-0.39784 z m 2.13715,-3.1637 c 0.7042,-0.7042 0.64398,-0.95255 -0.54585,-2.25088 l -1.04871,-1.14434 -16.25793,-0.051 -16.25793,-0.051 -0.77336,0.89784 c -1.67506,1.94467 -0.30359,3.07321 2.41671,1.98864 1.50268,-0.59912 1.99574,-0.62657 5.40158,-0.30078 1.14527,0.10955 2.65071,0.0384 3.4506,-0.16296 1.29185,-0.32529 1.54233,-0.28499 2.79646,0.44998 2.08259,1.22048 4.1726,0.96019 5.4919,-0.68395 0.62109,-0.77403 0.71545,-0.79326 2.08,-0.42404 0.92397,0.25002 2.3518,0.31255 4.0381,0.17687 2.5521,-0.20536 2.65513,-0.18529 4.74658,0.92424 2.31586,1.22859 3.6726,1.42056 4.46185,0.6313 z m -1.73715,-5.99906 c 0,-1.45585 -0.86716,-4.25997 -1.82245,-5.89319 -0.43594,-0.7453 -1.53049,-2.0185 -2.43232,-2.82933 -6.25843,-5.62686 -16.36148,-5.65837 -22.47595,-0.0701 -0.97472,0.89084 -2.13956,2.24653 -2.58853,3.01264 -0.91986,1.56961 -1.71126,4.2439 -1.71695,5.80188 l -0.004,1.04 h 15.52 15.52 z m -21.97253,-2.31959 c -0.26671,-0.69503 0.41038,-1.34865 0.89502,-0.864 0.40962,0.40961 0.15586,1.36551 -0.36249,1.36551 -0.18704,0 -0.42668,-0.22568 -0.53253,-0.50151 z m 11.79345,-0.37849 c 0.0593,-0.308 0.3199,-0.56 0.57908,-0.56 0.25919,0 0.51977,0.252 0.57909,0.56 0.0757,0.39291 -0.0971,0.56 -0.57909,0.56 -0.48196,0 -0.65474,-0.16709 -0.57908,-0.56 z m -17.76997,-0.31756 c -0.0928,-0.15015 -0.0487,-0.46711 0.0979,-0.70435 0.32454,-0.52512 1.40035,-0.18578 1.21128,0.38208 -0.16013,0.48093 -1.07231,0.70548 -1.30915,0.32227 z m 8.32905,-0.60911 c -0.45296,-0.45296 -0.19665,-1.07333 0.44347,-1.07333 0.44735,0 0.62976,0.17377 0.56,0.53348 -0.11422,0.58895 -0.66048,0.88283 -1.00347,0.53985 z m 2.88,0 c -0.45296,-0.45296 -0.19665,-1.07333 0.44347,-1.07333 0.44735,0 0.62976,0.17377 0.56,0.53348 -0.11422,0.58895 -0.66048,0.88283 -1.00347,0.53985 z m 2.80277,-0.14121 c -0.3011,-0.4872 0.35277,-1.05603 0.95033,-0.82673 0.28749,0.11033 0.4167,0.39732 0.30727,0.6825 -0.21839,0.56913 -0.94359,0.6523 -1.2576,0.14423 z m 7.36,0 c -0.3011,-0.4872 0.35277,-1.05603 0.95033,-0.82673 0.28749,0.11033 0.4167,0.39732 0.30727,0.6825 -0.21839,0.56913 -0.94359,0.6523 -1.2576,0.14423 z m -17.6353,-0.79363 c -0.26671,-0.69503 0.41038,-1.34865 0.89502,-0.864 0.40962,0.40961 0.15586,1.36551 -0.36249,1.36551 -0.18704,0 -0.42668,-0.22568 -0.53253,-0.50151 z m 20.72777,0.064 c -0.27664,-0.33334 -0.24463,-0.53589 0.13438,-0.85044 0.61162,-0.5076 1.29412,0.0276 1.00292,0.78647 -0.23703,0.61767 -0.65811,0.64136 -1.1373,0.064 z m -6.05432,-1.08246 c 0.0593,-0.308 0.3199,-0.56 0.57908,-0.56 0.25919,0 0.51977,0.252 0.57909,0.56 0.0757,0.39291 -0.0971,0.56 -0.57909,0.56 -0.48196,0 -0.65474,-0.16709 -0.57908,-0.56 z m -17.66092,-0.72 c 0,-0.48197 0.16709,-0.65475 0.56,-0.57908 0.308,0.0593 0.56,0.3199 0.56,0.57908 0,0.25918 -0.252,0.51976 -0.56,0.57908 -0.39291,0.0757 -0.56,-0.0971 -0.56,-0.57908 z m 5.12,0.0234 c 0,-0.45794 0.20552,-0.66345 0.66347,-0.66345 0.82004,0 0.72701,1.05914 -0.10714,1.21979 -0.384,0.0739 -0.55633,-0.0984 -0.55633,-0.55633 z m 9.82,0.40988 c -0.45296,-0.45296 -0.19665,-1.07333 0.44347,-1.07333 0.44735,0 0.62976,0.17377 0.56,0.53348 -0.11422,0.58895 -0.66048,0.88283 -1.00347,0.53985 z m -6.83253,-0.93485 c -0.2912,-0.75886 0.3913,-1.29407 1.00292,-0.78647 0.37901,0.31455 0.41102,0.51711 0.13438,0.85044 -0.47919,0.57739 -0.90028,0.55371 -1.1373,-0.064 z m 3.78334,0.0827 c -0.43494,-0.52407 -0.17421,-0.86122 0.66599,-0.86122 0.39757,0 0.57408,0.18586 0.50667,0.53348 -0.13774,0.7102 -0.72016,0.87297 -1.17266,0.32774 z m 8.92192,-0.68588 c -0.55616,-0.67014 -1.3e-4,-1.33918 0.75961,-0.914 0.43338,0.24253 0.44813,0.37776 0.094,0.86205 -0.38682,0.52902 -0.45427,0.53312 -0.85361,0.052 z m -17.87251,-1.05166 c 0.16064,-0.83415 1.21978,-0.92718 1.21978,-0.10713 0,0.45794 -0.20551,0.66346 -0.66346,0.66346 -0.45795,0 -0.63028,-0.17233 -0.55632,-0.55633 z m 14.87312,0.34299 c -0.4405,-0.4405 -0.19004,-1.06666 0.42666,-1.06666 0.42667,0 0.64,0.21333 0.64,0.64 0,0.6167 -0.62616,0.86717 -1.06666,0.42666 z m -11.94587,-0.92818 c -0.23094,-0.60183 0.33534,-1.25813 0.82465,-0.95572 0.52746,0.32599 0.4171,1.45723 -0.14216,1.45723 -0.26952,0 -0.57664,-0.22568 -0.68249,-0.50151 z m 9.07253,0.29485 c -0.45296,-0.45296 -0.19665,-1.07333 0.44347,-1.07333 0.44735,0 0.62976,0.17377 0.56,0.53348 -0.11422,0.58895 -0.66048,0.88283 -1.00347,0.53985 z m -2.9946,-0.94024 c -0.2293,-0.59756 0.33953,-1.25143 0.82672,-0.95033 0.50808,0.31401 0.42491,1.0392 -0.14423,1.2576 -0.28517,0.10943 -0.57217,-0.0198 -0.68249,-0.30727 z m -3.15168,-0.14326 c -0.12427,-0.20108 -0.0898,-0.50178 0.0767,-0.66821 0.38865,-0.38866 1.43475,0.003 1.27663,0.4778 -0.16752,0.50319 -1.08058,0.63165 -1.35329,0.19041 z m 31.64101,23.71992 c -2.24005,-1.05973 -2.41949,-1.39538 -2.97929,-5.57291 -0.65512,-4.88885 -0.23422,-16.43723 0.70373,-19.30828 0.51196,-1.56712 1.38566,-1.73869 2.56824,-0.50434 l 0.87168,0.90984 0.13222,8.94297 c 0.14969,10.12429 0.37599,12.94297 1.03915,12.94297 0.24286,0 1.47196,-0.36 2.73134,-0.8 2.7476,-0.95996 2.86268,-0.96569 3.81997,-0.19053 l 0.75267,0.60948 -0.63722,0.70506 c -1.0114,1.11909 -2.30197,1.93635 -4.08943,2.58969 -2.18646,0.79919 -2.59609,0.77217 -4.91306,-0.32394 z m 11.88528,-3.04331 c -1.26217,-0.56338 -2.56603,-1.97912 -3.18303,-3.45616 -1.29305,-3.09548 0.0669,-8.79332 2.69473,-11.29028 1.28556,-1.22154 3.18304,-1.31916 4.69484,-0.24154 1.09755,0.78234 1.39346,0.56458 1.39346,-1.02545 0,-1.2225 0.74165,-1.58058 1.97701,-0.95453 2.12609,1.07745 2.18166,1.20167 2.19704,4.91111 0.0149,3.59701 0.41572,7.92686 0.76625,8.27737 0.46262,0.46263 1.35879,-0.55035 2.4945,-2.81962 1.1622,-2.32222 1.19494,-2.48387 1.2,-5.92618 0.004,-2.41445 0.13908,-3.72193 0.42657,-4.1151 0.40096,-0.54835 0.50171,-0.53555 2.08,0.26423 l 1.65863,0.84049 v 2.87461 c 0,1.58103 0.12488,2.87461 0.27752,2.87461 0.15263,0 0.72594,-1.18812 1.27401,-2.64026 0.54808,-1.45214 1.22336,-2.96414 1.50063,-3.36 1.24741,-1.78093 3.1225,-0.18742 4.61296,3.92026 1.43792,3.96285 1.65693,4.14049 2.82804,2.29384 0.51577,-0.81328 1.03106,-2.1661 1.14508,-3.00627 0.60299,-4.44303 2.63138,-7.76757 4.7392,-7.76757 2.04026,0 3.55551,2.1825 3.39875,4.89541 -0.0808,1.39763 -0.20166,1.67968 -0.75385,1.75867 -0.36171,0.0517 -0.91809,-0.19368 -1.23639,-0.5454 -0.48781,-0.53902 -0.52274,-0.80012 -0.22234,-1.66184 0.54822,-1.57264 0.464,-2.5939 -0.20361,-2.46901 -0.89186,0.16682 -1.74121,3.19811 -1.91154,6.82217 -0.17376,3.69685 0.13484,4.84322 1.38845,5.15786 1.3646,0.34249 2.84684,-0.6813 4.28635,-2.96061 2.12439,-3.36373 2.18268,-3.66092 2.34525,-11.95725 0.15203,-7.75855 0.53169,-10.64098 1.72229,-13.07591 0.54993,-1.12469 0.62489,-1.16269 2.21455,-1.12265 2.10637,0.053 3.51728,0.87332 3.99572,2.32301 0.63225,1.91572 0.14616,6.44772 -1.1536,10.75555 -1.48317,4.91572 -2.36897,9.82295 -2.16199,11.97711 l 0.16089,1.67434 0.8704,-2.66572 c 1.08288,-3.31646 3.34442,-8.54407 3.96457,-9.16423 0.55757,-0.55755 1.71288,-0.33236 2.79819,0.54544 0.73264,0.59255 0.76381,0.79467 0.8518,5.52406 0.10585,5.6898 0.13849,5.8654 1.00422,5.40208 1.17143,-0.62693 2.5689,-4.08454 2.72136,-6.73316 0.18334,-3.18507 0.53625,-4.04607 1.76946,-4.31693 0.6316,-0.13872 1.15424,-0.54404 1.45736,-1.13021 0.67468,-1.30468 1.69973,-1.91278 3.22432,-1.91278 1.77247,0 2.86203,0.9057 4.01082,3.334 0.70823,1.49703 0.92068,2.40742 0.92087,3.946 1.4e-4,1.1 0.14199,2 0.31521,2 0.17322,0 0.78522,-0.42022 1.36,-0.93381 l 1.04505,-0.93381 0.0114,-3.70616 c 0.0145,-4.70306 0.23147,-5.02418 2.5486,-3.77133 l 1.6,0.86511 0.16,3.03585 0.16,3.03584 0.60623,-1.43584 c 1.63671,-3.87656 2.44501,-5.46025 2.87013,-5.62338 0.25623,-0.0983 0.88453,0.0377 1.39621,0.30232 0.95081,0.49168 1.23393,1.01 2.90875,5.32521 0.51232,1.32 1.11893,2.4 1.34803,2.4 0.73192,0 2.17409,-2.80966 2.6748,-5.21106 0.62143,-2.9804 1.88711,-5.33655 3.14705,-5.85843 1.13328,-0.46942 2.65781,-0.0453 4.32881,1.20432 0.93005,0.69552 1.04,0.94625 1.04,2.37173 0,2.96231 -1.47963,5.28429 -3.58146,5.62038 -0.6702,0.10717 -1.21855,0.37096 -1.21855,0.5862 0,0.70231 0.71942,2.55389 1.21491,3.12686 1.09271,1.26355 3.60615,0.24775 5.05126,-2.04144 1.54128,-2.44155 1.75914,-3.59151 1.66275,-8.77643 l -0.0889,-4.78213 -1.36,-0.0984 c -1.31757,-0.0953 -1.36,-0.13277 -1.36,-1.2 0,-1.0285 0.069,-1.10193 1.04,-1.1065 0.572,-0.003 1.19831,-0.1107 1.39179,-0.24 0.19349,-0.12931 0.43898,-1.30139 0.54554,-2.60464 0.10655,-1.30324 0.33371,-2.5095 0.50477,-2.68057 0.45103,-0.45103 1.75924,-0.0357 2.89324,0.91846 0.87738,0.73827 0.98466,1.01823 0.98466,2.56967 v 1.74114 l 1.68,-0.0896 c 1.67324,-0.0892 1.68,-0.0857 1.68,0.87043 0,0.9062 -0.0844,0.96971 -1.50655,1.13321 -0.8286,0.0953 -1.6206,0.28789 -1.76,0.42804 -0.1394,0.14015 -0.25345,4.98215 -0.25345,10.75999 0,5.77785 -0.10129,10.60653 -0.2251,10.7304 -0.37305,0.37326 -1.86214,-0.14979 -2.63947,-0.92712 -0.57487,-0.57486 -0.77807,-1.24822 -0.95884,-3.17726 l -0.22937,-2.44781 -1.02711,1.34662 c -1.93515,2.53715 -4.09791,3.4677 -6.53461,2.81157 -1.75345,-0.47216 -3.07549,-1.63712 -3.74094,-3.29645 l -0.54588,-1.36119 -0.62389,1.21345 c -0.73886,1.43709 -1.81641,1.95457 -3.07421,1.47636 -1.45161,-0.55191 -2.03707,-1.27469 -3.43046,-4.2351 -1.01388,-2.15408 -1.41005,-2.72424 -1.66762,-2.4 -0.54005,0.67987 -1.31892,3.36329 -2.0274,6.98492 -0.36147,1.8478 -0.83224,3.52936 -1.04616,3.73682 -0.29881,0.28978 -0.67193,0.27838 -1.61013,-0.0492 -1.80922,-0.63172 -2.37895,-1.30325 -2.6253,-3.09443 -0.18146,-1.3194 -0.31083,-1.55666 -0.74651,-1.36913 -0.28985,0.12476 -0.92623,0.29528 -1.41419,0.37895 -0.70054,0.12012 -1.0288,0.48133 -1.5604,1.71707 -1.70953,3.9739 -5.49333,4.87271 -8.3763,1.98974 -0.64686,-0.64686 -1.17611,-1.29611 -1.17611,-1.44278 0,-0.57513 -0.58099,-0.22604 -0.75449,0.45334 -0.29942,1.17252 -2.05941,3.05463 -3.06244,3.27493 -1.10022,0.24165 -3.3364,-0.77084 -3.85896,-1.74725 -0.18551,-0.34662 -0.50075,-1.78615 -0.70055,-3.19895 -0.1998,-1.4128 -0.4714,-2.56873 -0.60355,-2.56873 -0.35145,0 -2.01395,4.23176 -2.85246,7.26072 -0.39903,1.44139 -0.92509,2.69731 -1.16903,2.79092 -0.75263,0.2888 -2.74406,-0.5667 -3.41072,-1.46523 -0.34833,-0.46948 -0.80568,-1.53237 -1.01632,-2.36199 l -0.383,-1.50839 -0.97695,1.73106 c -1.23153,2.18215 -3.20143,3.97781 -4.8511,4.42202 -1.02604,0.27628 -1.53002,0.24185 -2.57406,-0.1759 -1.36261,-0.54521 -3.22637,-2.38469 -3.22637,-3.18435 0,-0.71437 -0.50625,-0.56065 -1.09058,0.33114 -0.81296,1.24074 -3.08515,1.00122 -4.29046,-0.45227 -0.23157,-0.27925 -0.99602,-1.699 -1.69879,-3.155 -0.70278,-1.456 -1.40941,-2.56591 -1.57029,-2.46648 -0.42428,0.26222 -1.48759,3.87693 -2.09282,7.11452 -0.2878,1.53957 -0.65744,3.05123 -0.82143,3.35923 -0.60328,1.1331 -3.06026,0.29848 -4.08583,-1.38792 l -0.5819,-0.95685 -0.41084,0.99186 c -0.52201,1.26023 -2.20186,2.55291 -3.31755,2.55291 -1.59702,0 -3.00408,-0.83764 -3.70066,-2.20305 -0.36237,-0.7103 -0.65885,-1.65719 -0.65885,-2.1042 0,-1.19882 -0.53374,-0.98767 -0.97887,0.38725 -0.21368,0.66 -0.72865,1.87883 -1.14439,2.70851 -1.08241,2.16016 -2.13857,2.60091 -4.11674,1.71793 z m 1.89923,-2.9314 c 0.82682,-0.82681 1.06473,-1.46421 1.60029,-4.28746 0.33741,-1.77867 0.72496,-2.88915 1.14479,-3.28028 0.59642,-0.55565 0.60326,-0.6393 0.11354,-1.38672 -1.50952,-2.30382 -3.06624,-1.21984 -4.16391,2.89942 -0.75118,2.81901 -0.4578,6.56 0.51446,6.56 0.15723,0 0.51311,-0.22723 0.79083,-0.50496 z m 64.085,-6.93504 c 0.74412,-0.81697 1.37577,-1.94959 1.37577,-2.46689 0,-0.19192 -0.35125,-0.48249 -0.78055,-0.64571 -1.10134,-0.41874 -1.54931,-1.36219 -1.00211,-2.11053 0.36953,-0.50537 0.5542,-0.53612 1.2676,-0.21107 l 0.83506,0.38048 v -1.76342 c 0,-0.96988 -0.20866,-2.26279 -0.46367,-2.87314 -0.40431,-0.96763 -0.60758,-1.10972 -1.58754,-1.10972 -1.23924,0 -2.55493,1.0831 -2.3354,1.92256 0.0699,0.26717 0.0177,1.41292 -0.11591,2.54612 -0.39632,3.36122 0.51118,7.05132 1.73411,7.05132 0.22927,0 0.71195,-0.324 1.07264,-0.72 z m 28.9118,-10.51142 c 0.82813,-1.62327 1.00776,-3.96858 0.30397,-3.96858 -0.68038,0 -1.92,2.62632 -1.92,4.0678 0,1.64339 0.75053,1.5973 1.61603,-0.0992 z m -47.49964,-3.74862 c 0.92138,-3.34893 1.29826,-7.83366 0.77145,-9.17996 -0.34681,-0.88628 -0.4078,-0.91623 -0.79434,-0.39001 -0.57035,0.77649 -1.08218,4.45643 -1.30701,9.3972 -0.2145,4.71379 0.0704,4.7508 1.3299,0.17277 z m 64.44361,10.9205 c -1.52411,-0.77978 -1.88726,-1.15779 -2.70949,-2.82046 -0.79737,-1.61239 -0.94956,-2.30451 -0.94994,-4.32 -9.6e-4,-4.31322 2.08585,-8.64 4.16679,-8.64 1.22955,0 3.58073,1.19276 4.19292,2.12708 0.61762,0.9426 0.42396,3.6777 -0.36897,5.21106 -0.59865,1.15765 -2.21931,2.25891 -3.32691,2.26066 -0.69744,9.6e-4 -0.73928,0.0936 -0.54339,1.2012 0.47884,2.70731 2.26954,3.6348 4.3493,2.25271 0.81701,-0.54293 1.51848,-1.56355 2.65952,-3.8695 1.27545,-2.57757 1.62953,-3.06593 2,-2.75846 1.47767,1.22635 -1.14514,7.22927 -3.97231,9.09158 -1.89777,1.25009 -3.4268,1.32355 -5.49752,0.26413 z m 2.19077,-9.46046 c 0.35632,-0.748 0.74491,-1.89848 0.86352,-2.55662 0.17495,-0.97066 0.10969,-1.23729 -0.34558,-1.412 -0.92946,-0.35666 -1.59286,0.94381 -2.18775,4.28862 -0.15492,0.87106 -0.0869,1.04 0.41849,1.04 0.395,0 0.82727,-0.46982 1.25132,-1.36 z M 167.89596,87.6626 c 0.23099,-0.0924 0.507,-0.0811 0.61333,0.0252 0.10633,0.10633 -0.0827,0.18196 -0.42,0.16807 -0.37278,-0.0154 -0.44861,-0.0912 -0.19333,-0.19333 z" id="path1346"/>
      <path style="fill:#aa1b20;stroke-width:0.32" d="m 208.91596,258.99004 c -0.088,-0.0818 -3.904,-0.25813 -8.48,-0.39177 -4.576,-0.13364 -8.896,-0.27995 -9.6,-0.32512 -5.76267,-0.36977 -8.02818,-0.54484 -12.64,-0.97673 -4.95526,-0.46405 -6.54159,-0.62143 -9.28,-0.92066 -0.616,-0.0673 -3.352,-0.43293 -6.08001,-0.81249 -2.728,-0.37956 -5.32,-0.73741 -5.76,-0.79522 -0.44,-0.0578 -2.6,-0.41818 -4.8,-0.80083 -2.2,-0.38264 -4.288,-0.7457 -4.64,-0.80678 -0.352,-0.0611 -1.648,-0.32597 -2.88,-0.58862 -1.232,-0.26265 -2.672,-0.54917 -3.2,-0.6367 -0.528,-0.0875 -1.896,-0.3802 -3.04,-0.65037 -1.144,-0.27016 -2.44,-0.56312 -2.88,-0.65102 -0.75092,-0.15 -1.33785,-0.28707 -2.88,-0.67261 -0.352,-0.088 -0.928,-0.232 -1.28,-0.32 -1.27569,-0.31893 -1.80031,-0.4586 -4.16,-1.10756 -1.32,-0.36302 -2.86177,-0.8094 -3.42616,-0.99195 -0.56438,-0.18255 -1.28438,-0.38672 -1.6,-0.45372 -0.31561,-0.067 -1.43784,-0.42456 -2.49384,-0.79458 -1.056,-0.37002 -1.956,-0.66814 -2,-0.66248 -0.044,0.006 -0.116,-3.2e-4 -0.16,-0.0135 -0.044,-0.0131 -0.43692,-0.0892 -0.87315,-0.16916 -0.43624,-0.08 -0.93304,-0.28526 -1.104,-0.45622 -0.17097,-0.17095 -0.572,-0.31083 -0.89119,-0.31083 -0.31919,0 -0.83039,-0.14203 -1.136,-0.31563 -0.30561,-0.1736 -2.21166,-0.90177 -4.23566,-1.61816 -3.86999,-1.36978 -3.9305,-1.39358 -6.72,-2.6427 -0.968,-0.43347 -2.840003,-1.25441 -4.160004,-1.82432 -3.80424,-1.64248 -11.0199,-5.32411 -15.20734,-7.75919 -0.8323,-0.484 -1.57674,-0.88 -1.65431,-0.88 -0.0776,0 -0.61303,-0.36 -1.1899,-0.8 -0.57687,-0.44 -1.1281,-0.8 -1.22496,-0.8 -0.1576,0 -4.62212,-2.96408 -6.62635,-4.39937 -0.99657,-0.71367 -7.06042,-5.39618 -7.69714,-5.94374 -0.264,-0.22703 -1.2,-1.03071 -2.08,-1.78597 -5.6638,-4.86093 -13.57342,-13.39941 -18.55563,-20.03092 -2.57547,-3.42805 -8.65012,-12.49396 -9.32715,-13.92 -0.12534,-0.264 -1.08899,-1.992 -2.14146,-3.84 -2.59719,-4.56038 -6.52879,-12.4703 -8.90706,-17.92 -1.78493,-4.09008 -1.92583,-4.43175 -3.16723,-7.68 -0.57173,-1.496 -1.16145,-2.8568 -1.31049,-3.024 -0.14904,-0.1672 -0.27098,-0.50544 -0.27098,-0.75164 0,-0.2462 -0.20956,-0.9014 -0.4657,-1.456 -1.24289,-2.69119 -8.247209,-24.91198 -8.992549,-28.52837 -0.0725,-0.352 -0.574601,-2.368 -1.1156708,-4.48 -0.54107,-2.112 -1.05199,-4.17439 -1.13537,-4.5831 -0.0834,-0.40871 -0.51142,-2.35271 -0.9512,-4.32 -0.43978,-1.96729 -0.86858,-3.9369 -0.95289,-4.3769 -0.0843,-0.44 -0.23773,-1.160001 -0.34096,-1.600001 -0.10322,-0.439996 -0.25019,-1.159992 -0.32661,-1.599992 -0.0764,-0.44 -0.43096,-2.384 -0.78788,-4.32 -0.67256,-3.64809 -0.80006,-4.355969 -1.12388,-6.240001 -0.10588,-0.616 -0.24611,-1.408 -0.31163,-1.76 -0.0655,-0.352 -0.18604,-1.144 -0.26782,-1.76 -0.0818,-0.616 -0.52268,-3.856 -0.97978,-7.2 -0.98359996,-7.195744 -1.05766996,-7.786301 -1.26436996,-10.08 -1.089,-12.084727 -1.22346004,-13.885566 -1.63656004,-21.920001 -0.2012,-3.91296 -0.20353,-25.404777 -0.003,-29.600001 0.0798,-1.672 0.23152,-5.1280014 0.33708,-7.6800008 0.22190004,-5.364537 0.40400004,-7.61974898 0.64702004,-8.01296598 0.21362,-0.34564002 1.11199,-0.03173 1.11199,0.388553 0,0.262889 1.42120996,2.34750898 1.92556996,2.82441198 0.0931,0.088 0.44234,0.588258 0.77617,1.111684 0.33382,0.523425 0.72825,1.099425 0.87651,1.28 0.14826,0.180574 1.57134,2.106463 3.1624,4.279754 1.5910698,2.1732918 3.0296408,4.1172918 3.1968208,4.3200008 0.167179,0.202709 1.310849,1.705793 2.541489,3.340185 1.23064,1.634393 2.38081,3.146393 2.55594,3.360001 0.17513,0.213607 1.41119,1.756377 2.7468,3.428377 5.46785,6.845014 12.71867,14.263069 18.8481,19.282826 2.96819,2.430826 2.70599,2.224 4.50872,3.556512 0.86981,0.642938 1.72548,1.276845 1.90148,1.408682 1.80433,1.351578 3.73763,2.631981 3.97408,2.631981 0.16092,0 0.34059,0.124307 0.39926,0.27624 0.33869,0.877123 12.97795,7.739271 18.34666,9.960836 1.408,0.582624 3.17043,1.325632 3.91651,1.651123 0.74609,0.325491 1.48563,0.591801 1.64343,0.591801 0.1578,0 0.69937,0.215114 1.20348,0.478029 0.50412,0.262915 1.13978,0.478916 1.41258,0.48 0.2728,9.6e-4 0.6328,0.128036 0.8,0.282112 0.27424,0.252711 6.49655,2.399917 8.00652,2.762906 0.33962,0.08164 1.33748,0.362838 2.21748,0.624886 2.64118,0.786493 8.50201,2.418097 9.06989,2.52498 0.29156,0.05488 1.10611,0.258573 1.81011,0.452659 0.704,0.194086 1.712,0.425725 2.240001,0.514749 0.528,0.08903 1.248,0.2316 1.600003,0.316829 2.49022,0.60296 4.96907,1.145171 5.92,1.294905 0.616,0.09699 1.48,0.260192 1.92,0.362656 5.25143,1.222916 20.68394,3.483498 28.32,4.148362 1.232,0.107267 2.816,0.25351 3.52,0.324982 1.18612,0.120416 2.19359,0.202372 7.84,0.637764 5.47343,0.422051 13.28721,0.634182 23.36001,0.634182 12.06445,0 19.4133,-0.239123 29.12,-0.94753 1.144,-0.08349 3.448,-0.231808 5.12,-0.329596 1.672,-0.09779 4.696,-0.31833 6.72,-0.49009 4.1702,-0.353894 4.67523,-0.393056 16.32,-1.265501 4.664,-0.349437 9.776,-0.709155 11.36,-0.799376 1.584,-0.09022 4.176,-0.241581 5.76,-0.336355 3.68835,-0.220688 18.23744,-0.219491 20.96,0.0016 9.31237,0.756653 16.21199,2.204941 23.2,4.869879 2.49436,0.951248 9.17078,4.49111 9.38666,4.976844 0.0587,0.132001 0.29867,0.240001 0.53334,0.240001 0.23466,0 0.47466,0.116476 0.53333,0.258835 0.0587,0.142361 0.97067,0.894921 2.02667,1.672358 2.60469,1.917597 7.26318,6.65257 9.6,9.757617 1.056,1.403155 2.028,2.599191 2.16,2.657851 0.132,0.0587 0.24,0.31067 0.24,0.559996 0,0.24934 0.144,0.453341 0.32,0.453341 0.176,0 0.32,0.12928 0.32,0.2873 0,0.158 0.60097,1.274 1.3355,2.48 1.26813,2.0821 3.7845,6.89155 3.7845,7.23319 0,0.0879 0.38419,1.00579 0.85379,2.03969 0.4696,1.0339 0.89763,2.02382 0.9512,2.19982 0.0536,0.176 0.81379,2.408 1.68938,4.96 1.38877,4.04775 3.27977,10.69367 3.73315,13.12 0.0822,0.44 0.42806,2.24 0.76854,4 0.79015,4.08418 1.31031,7.05997 1.48224,8.48 0.0746,0.616 0.2834,2.33109 0.46404,3.8113 0.1806,1.48021 0.40822,3.56821 0.50576,4.64 0.0975,1.07179 0.23072,2.4527 0.29596,3.0687 0.26631,2.5137 0.3656,21.77176 0.12375,24 -0.1433,1.32 -0.33578,3.408 -0.42778,4.64 -0.092,1.232 -0.31686,3.32 -0.49968,4.64 -0.18281,1.32 -0.40121,2.976 -0.48531,3.68 -0.0841,0.704 -0.43949,2.72 -0.78976,4.48 -0.35027,1.76 -0.7024,3.56 -0.7825,4 -0.0801,0.44 -0.22633,1.016 -0.32496,1.28 -0.0986,0.264 -0.2455,0.84 -0.3264,1.28 -0.42976,2.33768 -2.69225,9.01403 -4.07372,12.02103 -0.32874,0.71557 -0.5977,1.40901 -0.5977,1.54096 0,0.13197 -0.72,1.45892 -1.6,2.94879 -0.88,1.48987 -1.6,2.78252 -1.6,2.87255 0,0.09 -0.14659,0.33761 -0.32573,0.55018 -0.17913,0.21257 -1.21984,1.60524 -2.31263,3.09481 -2.56504,3.49636 -4.53958,5.60168 -7.91262,8.43666 -1.50096,1.26154 -2.80102,2.37685 -2.88902,2.47846 -0.088,0.10162 -0.628,0.45697 -1.2,0.78966 -0.572,0.33269 -1.04,0.71785 -1.04,0.8559 0,0.13805 -0.151,0.251 -0.33555,0.251 -0.18456,0 -1.15656,0.54292 -2.16,1.20647 -1.00345,0.66356 -3.55245,2.04826 -5.66445,3.07712 -5.40104,2.6311 -5.67064,2.75641 -5.93008,2.75641 -0.12747,0 -0.78935,0.24326 -1.47084,0.54056 -0.68149,0.29731 -1.31108,0.55843 -1.39908,0.58027 -0.088,0.0219 -2.032,0.65317 -4.32,1.40293 -2.288,0.74977 -4.376,1.41463 -4.64,1.47746 -0.264,0.0628 -2.64,0.64187 -5.28,1.28675 -5.63704,1.37698 -4.58177,1.15815 -10.56,2.18981 -4.94646,0.85362 -10.67153,1.73607 -12.64,1.94831 -0.616,0.0664 -1.96255,0.21689 -2.99233,0.3344 -2.95585,0.33728 -4.03335,0.43719 -6.76767,0.62749 -1.408,0.098 -3.208,0.24867 -4,0.33483 -1.8402,0.2002 -5.92992,0.41354 -12,0.62597 -2.64,0.0924 -6.96,0.25369 -9.6,0.35845 -2.64,0.10476 -4.872,0.12352 -4.96,0.0417 z m 13.76,-4.71994 c 36.65566,-1.35234 62.70794,-7.31599 78.88,-18.05645 15.40255,-10.22941 23.20992,-26.8325 25.43626,-54.09253 0.47222,-5.78199 0.39056,-20.96655 -0.14541,-27.04 -1.17015,-13.2596 -3.43264,-24.56879 -7.04199,-35.20001 -1.84041,-5.42089 -6.5495,-14.92548 -9.27486,-18.72 -8.0917,-11.266035 -18.81322,-18.011741 -32.98278,-20.751917 -6.81068,-1.317085 -11.02876,-1.624874 -21.91122,-1.598842 -10.19247,0.02438 -14.07931,0.236096 -37.28,2.030647 -18.22795,1.409913 -26.17398,1.885238 -37.17035,2.223501 C 144.6115,84.189564 107.07432,79.345177 78.515946,69.814402 60.226876,63.710792 46.282046,55.992482 33.055796,44.652696 24.640386,37.437572 17.406926,29.232294 6.1993762,14.188074 c -3.38794,-4.5477284 -3.52647,-4.6879644 -3.78705,-3.83368 -0.45497,1.491555 -0.42709,34.119748 0.0344,40.246721 1.00927,13.399866 2.21616,23.985604 3.922,34.400001 6.6297198,40.475364 19.3701698,76.394734 35.9236298,101.280004 10.01116,15.05006 20.86431,25.97888 35.58361,35.83169 13.8783,9.28987 29.305494,16.18345 48.320004,21.59161 27.50359,7.82265 63.62118,11.77795 96.48001,10.56568 z m -24.14211,-4.46897 C 138.13109,247.38748 92.881106,232.6999 64.435946,206.27461 47.021136,190.09641 33.418186,167.2395 22.988836,136.63136 11.642276,103.33141 5.4060762,64.569624 5.7787862,29.660376 l 0.0972,-9.100739 3.9282108,5.015527 c 13.864119,17.701676 26.047019,28.514162 42.441489,37.667388 25.69289,14.344634 64.161174,22.914785 109.104584,24.30684 15.62652,0.484006 28.03352,-0.01549 59.08573,-2.378698 31.98988,-2.434579 41.83206,-2.608192 53.12,-0.937015 15.77977,2.336196 26.98921,9.10018 34.9466,21.087431 12.53298,18.88011 18.33132,56.1493 13.52169,86.91165 -3.02445,19.3444 -9.99769,31.90023 -22.30115,40.15496 -11.71972,7.86308 -31.30845,13.50086 -55.44714,15.95809 -13.54464,1.3788 -32.53606,1.98302 -45.74211,1.45532 z m -49.97502,-17.99115 c 1.81975,-0.54041 4.19519,-2.95646 4.68859,-4.76877 0.20965,-0.77005 0.60693,-2.07755 0.88284,-2.90556 0.40181,-1.20578 0.42643,-1.6706 0.12368,-2.33505 -0.64747,-1.42105 -0.45456,-2.61 0.62252,-3.83673 0.84558,-0.96306 0.97183,-1.31626 0.8153,-2.28088 -0.10188,-0.62775 -0.57185,-1.64826 -1.04439,-2.2678 -0.68464,-0.8976 -0.9117,-1.64743 -1.11772,-3.69108 -0.3276,-3.24969 -1.35532,-5.40405 -3.85026,-8.07116 -3.25173,-3.4761 -7.7196,-5.2797 -13.08344,-5.28155 -8.47554,-0.003 -15.54463,5.4906 -16.67981,12.9622 -0.27751,1.82657 -0.52825,2.42911 -1.39303,3.34752 -0.58004,0.616 -1.24198,1.65478 -1.47097,2.3084 -0.37029,1.05689 -0.35193,1.25961 0.16593,1.83183 0.32026,0.35389 0.83088,0.72233 1.13472,0.81876 0.30383,0.0964 0.81468,0.75693 1.13522,1.46775 0.54892,1.21727 0.55155,1.34532 0.0454,2.20221 -0.68809,1.16485 -0.68657,1.18953 0.26536,4.31043 0.92819,3.04305 2.42922,5.05494 4.45935,5.97706 1.17796,0.53504 2.29959,0.59015 12.14074,0.59653 7.63039,0.005 11.23311,-0.10886 12.16,-0.38411 z m -23.27322,-1.34565 c -1.41028,-0.51427 -2.63026,-1.55842 -3.28006,-2.80732 -1.02398,-1.96806 -1.91551,-1.85589 14.7504,-1.85589 14.26332,0 15.19993,0.0345 15.19881,0.56 -0.002,0.9648 -1.19914,2.57818 -2.60223,3.50719 l -1.34841,0.89281 -10.74408,0.0759 c -8.56605,0.0605 -10.9935,-0.015 -11.97443,-0.37272 z m -4.30566,-6.64721 c -0.2112,-0.2112 -0.384,-0.69757 -0.384,-1.08082 0,-1.43117 0.48117,-1.50403 7.26991,-1.10086 6.40749,0.38052 7.32374,0.57549 9.05009,1.92574 0.79979,0.62554 0.79781,0.62571 -7.376,0.63282 -5.94071,0.005 -8.28098,-0.0979 -8.56,-0.37688 z m 17.856,0.14073 c 0,-0.1338 0.33904,-0.6089 0.75341,-1.05579 0.71621,-0.7724 1.02967,-0.83339 6.34873,-1.23543 6.0852,-0.45994 6.97786,-0.32667 6.97786,1.04175 0,1.4142 -0.39059,1.49274 -7.424,1.49274 -3.6608,0 -6.656,-0.10947 -6.656,-0.24327 z m -4.89853,-4.19507 c -2.98961,-1.99173 -3.64227,-2.55296 -3.12589,-2.68799 0.35896,-0.0939 1.19531,0.11246 1.85854,0.45853 1.64418,0.8579 4.7825,0.70117 6.14604,-0.30693 0.99816,-0.73797 2.40079,-0.93388 2.74132,-0.38289 0.19894,0.3219 -3.21068,5.43807 -3.62352,5.43711 -0.11987,-2.8e-4 -1.9183,-1.1333 -3.99649,-2.51783 z m -9.13464,0.30052 c -2.62567,-0.17044 -3.06769,-0.28631 -3.6,-0.94369 -0.33376,-0.41217 -0.60683,-0.84899 -0.60683,-0.97073 0,-0.12173 0.71292,-0.47769 1.58425,-0.79102 2.47389,-0.8896 5.11092,-0.19697 8.31792,2.18473 l 1.10217,0.81853 -1.90217,-0.0518 c -1.04619,-0.0285 -3.2491,-0.1392 -4.89534,-0.24606 z m 17.48111,-1.03744 c 1.32005,-1.91863 1.76355,-2.23802 3.35224,-2.41416 1.0431,-0.11564 1.75337,0.0476 3.04947,0.70102 0.9293,0.46847 2.1893,0.93285 2.8,1.03195 0.77851,0.12634 1.11035,0.34858 1.11035,0.74363 0,0.75734 -0.60809,0.86544 -6.36505,1.1315 l -4.92506,0.22761 z m 7.26736,-2.9989 c -2.09145,-1.10953 -2.19448,-1.1296 -4.74658,-0.92424 -1.6863,0.13568 -3.11413,0.0731 -4.0381,-0.17687 -1.36455,-0.36922 -1.45891,-0.34999 -2.08,0.42404 -1.3193,1.64414 -3.40931,1.90443 -5.4919,0.68395 -1.25413,-0.73497 -1.50461,-0.77527 -2.79646,-0.44998 -0.79989,0.20141 -2.30533,0.27251 -3.4506,0.16296 -3.40584,-0.32579 -3.8989,-0.29834 -5.40158,0.30078 -2.7203,1.08457 -4.09177,-0.044 -2.41671,-1.98864 l 0.77336,-0.89784 16.25793,0.051 16.25793,0.051 1.04871,1.14434 c 1.18983,1.29833 1.25005,1.54668 0.54585,2.25088 -0.78925,0.78926 -2.14599,0.59729 -4.46185,-0.6313 z m -28.3115,-5.34584 c 0.006,-1.55798 0.79709,-4.23227 1.71695,-5.80188 0.44897,-0.76611 1.61381,-2.1218 2.58853,-3.01264 6.11447,-5.58829 16.21752,-5.55678 22.47595,0.0701 0.90183,0.81083 1.99638,2.08403 2.43232,2.82933 0.95529,1.63322 1.82245,4.43734 1.82245,5.89319 v 1.06192 h -15.52 -15.52 l 0.004,-1.04 z m 10.12874,-2.34151 c 0.26671,-0.69503 -0.41038,-1.34865 -0.89503,-0.864 -0.40961,0.40961 -0.15585,1.36551 0.36249,1.36551 0.18705,0 0.42669,-0.22568 0.53254,-0.50151 z m 11.88655,-0.37849 c -0.0593,-0.308 -0.3199,-0.56 -0.57909,-0.56 -0.25918,0 -0.51976,0.252 -0.57908,0.56 -0.0757,0.39291 0.0971,0.56 0.57908,0.56 0.48197,0 0.65475,-0.16709 0.57909,-0.56 z m -17.61899,-0.63983 c 0.18907,-0.56786 -0.88674,-0.9072 -1.21128,-0.38208 -0.14662,0.23724 -0.19066,0.5542 -0.0979,0.70435 0.23684,0.38321 1.14902,0.15866 1.30915,-0.32227 z m 8.02337,-0.82669 c 0.0698,-0.35971 -0.11265,-0.53348 -0.56,-0.53348 -0.36491,0 -0.66347,0.192 -0.66347,0.42666 0,0.98008 1.03656,1.07058 1.22347,0.10682 z m 2.88,0 c 0.0698,-0.35971 -0.11265,-0.53348 -0.56,-0.53348 -0.36491,0 -0.66347,0.192 -0.66347,0.42666 0,0.98008 1.03656,1.07058 1.22347,0.10682 z m 3.0569,0.25441 c 0.10943,-0.28518 -0.0198,-0.57217 -0.30727,-0.6825 -0.59756,-0.2293 -1.25143,0.33953 -0.95033,0.82673 0.31401,0.50807 1.03921,0.4249 1.2576,-0.14423 z m 7.36,0 c 0.10943,-0.28518 -0.0198,-0.57217 -0.30727,-0.6825 -0.59756,-0.2293 -1.25143,0.33953 -0.95033,0.82673 0.31401,0.50807 1.03921,0.4249 1.2576,-0.14423 z m -17.82783,-0.6494 c 0.26671,-0.69503 -0.41038,-1.34865 -0.89503,-0.864 -0.40961,0.40961 -0.15585,1.36551 0.36249,1.36551 0.18705,0 0.42669,-0.22568 0.53254,-0.50151 z m 20.8,0 c 0.2912,-0.75886 -0.3913,-1.29407 -1.00292,-0.78647 -0.37901,0.31455 -0.41102,0.5171 -0.13438,0.85044 0.47919,0.57739 0.90027,0.5537 1.1373,-0.064 z m -6.03345,-1.01849 c -0.0593,-0.308 -0.3199,-0.56 -0.57909,-0.56 -0.25918,0 -0.51976,0.252 -0.57908,0.56 -0.0757,0.39291 0.0971,0.56 0.57908,0.56 0.48197,0 0.65475,-0.16709 0.57909,-0.56 z m -17.69909,-0.72 c 0,-0.25918 -0.252,-0.51977 -0.56,-0.57908 -0.39291,-0.0757 -0.56,0.0971 -0.56,0.57908 0,0.48197 0.16709,0.65475 0.56,0.57908 0.308,-0.0593 0.56,-0.3199 0.56,-0.57908 z m 5.21979,-0.0837 c 0.0739,-0.384 -0.0984,-0.55632 -0.55632,-0.55632 -0.45795,0 -0.66347,0.20551 -0.66347,0.66346 0,0.82005 1.05915,0.72702 1.21979,-0.10714 z m 9.60368,-0.0228 c 0.0698,-0.35971 -0.11265,-0.53348 -0.56,-0.53348 -0.36491,0 -0.66347,0.192 -0.66347,0.42666 0,0.98008 1.03656,1.07058 1.22347,0.10682 z m -6.6987,-0.33103 c 0.27664,-0.33333 0.24463,-0.53588 -0.13438,-0.85044 -0.61162,-0.50759 -1.29412,0.0276 -1.00292,0.78647 0.23702,0.61768 0.65811,0.64136 1.1373,0.064 z m 3.8187,-0.30897 c 0.0674,-0.34762 -0.1091,-0.53348 -0.50667,-0.53348 -0.8402,0 -1.10093,0.33715 -0.66599,0.86121 0.4525,0.54524 1.03492,0.38246 1.17266,-0.32773 z m 8.50887,-1.27215 c -0.75974,-0.42517 -1.31577,0.24387 -0.75961,0.914 0.39934,0.48117 0.46679,0.47707 0.85361,-0.0519 0.35413,-0.48429 0.33938,-0.61953 -0.094,-0.86206 z m -17.41234,-0.24481 c 0,-0.82005 -1.05914,-0.72702 -1.21978,0.10713 -0.074,0.384 0.0984,0.55633 0.55632,0.55633 0.45795,0 0.66346,-0.20552 0.66346,-0.66346 z m 14.72,0.0235 c 0,-0.42667 -0.21333,-0.64 -0.64,-0.64 -0.6167,0 -0.86716,0.62616 -0.42666,1.06666 0.4405,0.44051 1.06666,0.19004 1.06666,-0.42666 z m -11.84,-0.62112 c 0,-0.34161 -0.15654,-0.71786 -0.34788,-0.83611 -0.48931,-0.30241 -1.05559,0.35388 -0.82465,0.95572 0.2743,0.71482 1.17253,0.6232 1.17253,-0.11961 z m 8.90347,-0.1254 c 0.0698,-0.35971 -0.11265,-0.53348 -0.56,-0.53348 -0.36491,0 -0.66347,0.192 -0.66347,0.42666 0,0.98008 1.03656,1.07058 1.22347,0.10682 z m -2.82347,-0.70887 c 0,-0.60125 -0.63137,-0.92128 -1.03037,-0.52228 -0.47786,0.47786 -0.0575,1.36661 0.53826,1.138 0.27066,-0.10387 0.49211,-0.38094 0.49211,-0.61572 z m -2.97299,-0.0252 c 0.15812,-0.47494 -0.88798,-0.86646 -1.27663,-0.4778 -0.16644,0.16643 -0.20093,0.46713 -0.0767,0.66821 0.27271,0.44125 1.18577,0.31278 1.35329,-0.19041 z m 35.20078,24.23428 c 1.78746,-0.65334 3.07803,-1.47061 4.08943,-2.58969 l 0.63722,-0.70506 -0.75267,-0.60948 c -0.95729,-0.77517 -1.07237,-0.76943 -3.81997,0.19052 -1.25938,0.44 -2.48848,0.8 -2.73134,0.8 -0.66316,0 -0.88946,-2.81868 -1.03915,-12.94296 l -0.13222,-8.94297 -0.87168,-0.90984 c -1.18258,-1.23435 -2.05628,-1.06278 -2.56824,0.50434 -0.93795,2.87105 -1.35885,14.41943 -0.70373,19.30828 0.5598,4.17754 0.73924,4.51318 2.97929,5.57291 2.31697,1.09612 2.7266,1.12313 4.91306,0.32395 z m 9.71368,-3.2452 c 0.65544,-0.35077 1.87115,-2.54539 2.51967,-4.54851 0.44513,-1.37491 0.97887,-1.58607 0.97887,-0.38725 0,0.44701 0.29648,1.39391 0.65885,2.10421 0.69658,1.36541 2.10364,2.20304 3.70066,2.20304 1.11569,0 2.79554,-1.29267 3.31755,-2.5529 l 0.41084,-0.99187 0.5819,0.95685 c 1.02557,1.68641 3.48255,2.52103 4.08583,1.38792 0.16399,-0.308 0.53363,-1.81965 0.82143,-3.35923 0.60523,-3.23758 1.66854,-6.85229 2.09282,-7.11451 0.16088,-0.0994 0.86751,1.01048 1.57029,2.46648 0.70277,1.45599 1.46722,2.87574 1.69879,3.155 1.20531,1.45349 3.4775,1.69301 4.29046,0.45226 0.58433,-0.89179 1.09058,-1.0455 1.09058,-0.33113 0,0.79966 1.86376,2.63914 3.22637,3.18435 1.04404,0.41774 1.54802,0.45218 2.57406,0.1759 1.64967,-0.44421 3.61957,-2.23987 4.8511,-4.42203 l 0.97695,-1.73105 0.383,1.50839 c 0.21064,0.82962 0.66799,1.89251 1.01632,2.36198 0.66666,0.89853 2.65809,1.75404 3.41072,1.46523 0.24394,-0.0936 0.77,-1.34952 1.16903,-2.79092 0.83851,-3.02896 2.50101,-7.26072 2.85246,-7.26072 0.13215,0 0.40375,1.15593 0.60355,2.56873 0.1998,1.4128 0.51504,2.85233 0.70055,3.19895 0.52256,0.97641 2.75874,1.9889 3.85896,1.74725 1.00303,-0.2203 2.76302,-2.10241 3.06244,-3.27493 0.1735,-0.67938 0.75449,-1.02847 0.75449,-0.45334 0,0.14667 0.52925,0.79592 1.17611,1.44278 2.88297,2.88297 6.66677,1.98416 8.3763,-1.98974 0.5316,-1.23574 0.85986,-1.59695 1.5604,-1.71707 0.48796,-0.0837 1.12434,-0.25419 1.41419,-0.37895 0.43568,-0.18753 0.56505,0.0497 0.74651,1.36913 0.24635,1.79118 0.81608,2.46271 2.6253,3.09443 0.9382,0.32759 1.31132,0.33899 1.61013,0.0492 0.21392,-0.20746 0.68469,-1.88902 1.04616,-3.73682 0.70848,-3.62163 1.48735,-6.30505 2.0274,-6.98492 0.25757,-0.32424 0.65374,0.24592 1.66762,2.4 1.39339,2.96041 1.97885,3.68319 3.43046,4.2351 1.2578,0.47821 2.33535,-0.0393 3.07421,-1.47636 l 0.62389,-1.21345 0.54588,1.36119 c 0.66545,1.65933 1.98749,2.82429 3.74094,3.29645 2.4367,0.65613 4.59946,-0.27442 6.53461,-2.81157 l 1.02711,-1.34662 0.22937,2.44781 c 0.18077,1.92904 0.38397,2.6024 0.95884,3.17726 0.77733,0.77733 2.26642,1.30038 2.63947,0.92712 0.12381,-0.12387 0.2251,-4.95255 0.2251,-10.7304 0,-5.77784 0.11405,-10.61984 0.25345,-10.75999 0.1394,-0.14015 0.9314,-0.33277 1.76,-0.42804 1.42212,-0.1635 1.50655,-0.22701 1.50655,-1.13321 0,-0.95614 -0.007,-0.95964 -1.68,-0.87043 l -1.68,0.0896 v -1.74114 c 0,-1.55144 -0.10728,-1.8314 -0.98466,-2.56967 -1.134,-0.9542 -2.44221,-1.36949 -2.89324,-0.91846 -0.17106,0.17107 -0.39822,1.37733 -0.50477,2.68057 -0.10656,1.30325 -0.35205,2.47533 -0.54554,2.60464 -0.19348,0.1293 -0.81979,0.2373 -1.39179,0.24 -0.97098,0.005 -1.04,0.078 -1.04,1.1065 0,1.06723 0.0424,1.10467 1.36,1.2 l 1.36,0.0984 0.0889,4.78213 c 0.0964,5.18492 -0.12147,6.33488 -1.66275,8.77643 -1.44511,2.28919 -3.95855,3.30499 -5.05125,2.04144 -0.4955,-0.57297 -1.21491,-2.42455 -1.21491,-3.12686 0,-0.21524 0.54834,-0.47903 1.21854,-0.5862 2.10183,-0.33609 3.58146,-2.65807 3.58146,-5.62038 0,-1.42548 -0.10995,-1.67621 -1.04,-2.37173 -1.671,-1.2496 -3.19552,-1.67374 -4.3288,-1.20432 -1.25995,0.52188 -2.52563,2.87803 -3.14706,5.85843 -0.50071,2.4014 -1.94288,5.21106 -2.6748,5.21106 -0.22909,0 -0.83571,-1.08 -1.34802,-2.4 -1.67483,-4.31521 -1.95794,-4.83353 -2.90875,-5.32521 -0.51169,-0.26461 -1.13998,-0.40065 -1.39622,-0.30232 -0.42512,0.16313 -1.23342,1.74682 -2.87013,5.62338 l -0.60622,1.43584 -0.16,-3.03584 -0.16,-3.03585 -1.6,-0.86511 c -2.31713,-1.25285 -2.53414,-0.93173 -2.54861,3.77133 l -0.0114,3.70616 -1.04505,0.93381 c -0.57477,0.51359 -1.18677,0.93381 -1.36,0.93381 -0.17322,0 -0.31506,-0.9 -0.3152,-2 -2e-4,-1.53858 -0.21265,-2.44897 -0.92087,-3.946 -1.1488,-2.4283 -2.23836,-3.334 -4.01083,-3.334 -1.52459,0 -2.54964,0.6081 -3.22432,1.91278 -0.30312,0.58617 -0.82576,0.99149 -1.45736,1.13021 -1.23321,0.27086 -1.58612,1.13186 -1.76946,4.31693 -0.15246,2.64862 -1.54993,6.10623 -2.72136,6.73316 -0.86573,0.46332 -0.89837,0.28772 -1.00422,-5.40208 -0.088,-4.72939 -0.11916,-4.93151 -0.8518,-5.52406 -1.08531,-0.8778 -2.24062,-1.10299 -2.79819,-0.54544 -0.62015,0.62016 -2.88169,5.84777 -3.96457,9.16423 l -0.8704,2.66572 -0.16089,-1.67434 c -0.20698,-2.15416 0.67882,-7.06139 2.16199,-11.97711 1.29976,-4.30783 1.78585,-8.83983 1.1536,-10.75555 -0.47844,-1.44969 -1.88935,-2.26996 -3.99572,-2.32301 -1.58966,-0.04 -1.66462,-0.002 -2.21455,1.12265 -1.1906,2.43493 -1.57026,5.31736 -1.72229,13.07591 -0.16257,8.29633 -0.22086,8.59352 -2.34525,11.95725 -1.43951,2.27931 -2.92175,3.3031 -4.28635,2.96061 -1.25361,-0.31464 -1.56221,-1.46101 -1.38845,-5.15786 0.17033,-3.62406 1.01968,-6.65535 1.91154,-6.82217 0.66761,-0.12489 0.75183,0.89637 0.20361,2.46901 -0.3004,0.86172 -0.26547,1.12282 0.22234,1.66184 0.3183,0.35172 0.87468,0.59715 1.23639,0.5454 0.55219,-0.079 0.67308,-0.36104 0.75385,-1.75867 0.15676,-2.71291 -1.35849,-4.89541 -3.39875,-4.89541 -2.10782,0 -4.13621,3.32454 -4.7392,7.76757 -0.11402,0.84017 -0.62931,2.19299 -1.14508,3.00627 -1.17111,1.84665 -1.39012,1.66901 -2.82804,-2.29384 -1.49046,-4.10768 -3.36555,-5.70119 -4.61296,-3.92026 -0.27727,0.39586 -0.95255,1.90786 -1.50063,3.36 -0.54807,1.45214 -1.12138,2.64026 -1.27401,2.64026 -0.15264,0 -0.27752,-1.29358 -0.27752,-2.87461 v -2.87461 l -1.65863,-0.84049 c -1.57829,-0.79978 -1.67904,-0.81258 -2.08,-0.26423 -0.28749,0.39317 -0.42303,1.70065 -0.42657,4.1151 -0.005,3.44231 -0.0378,3.60396 -1.2,5.92618 -1.13571,2.26927 -2.03188,3.28225 -2.4945,2.81962 -0.35053,-0.35051 -0.75134,-4.68036 -0.76625,-8.27737 -0.0154,-3.70944 -0.071,-3.83366 -2.19704,-4.91111 -1.23536,-0.62605 -1.97701,-0.26797 -1.97701,0.95453 0,1.59003 -0.29591,1.80779 -1.39346,1.02545 -1.5118,-1.07762 -3.40928,-0.98 -4.69484,0.24154 -2.62784,2.49696 -3.98778,8.1948 -2.69473,11.29028 1.16847,2.79723 4.08848,4.56083 5.92449,3.57823 z m -2.25021,-3.16747 c -0.46162,-0.86255 -0.40689,-4.02868 0.10269,-5.94104 1.09767,-4.11925 2.65439,-5.20323 4.16391,-2.89942 0.48972,0.74742 0.48288,0.83108 -0.11354,1.38672 -0.41983,0.39114 -0.80738,1.50162 -1.14479,3.28029 -0.53556,2.82325 -0.77347,3.46064 -1.60029,4.28746 -0.66466,0.66467 -1.00604,0.63702 -1.40798,-0.11401 z m 63.50597,-6.86037 c -0.7293,-1.11305 -1.09732,-3.93781 -0.81974,-6.29199 0.13362,-1.13319 0.18577,-2.27894 0.11591,-2.54612 -0.21953,-0.83945 1.09616,-1.92256 2.3354,-1.92256 0.97996,0 1.18323,0.14209 1.58754,1.10973 0.25501,0.61034 0.46367,1.90326 0.46367,2.87314 v 1.76341 l -0.83506,-0.38047 c -0.7134,-0.32505 -0.89807,-0.2943 -1.2676,0.21106 -0.5472,0.74834 -0.0992,1.6918 1.00211,2.11053 0.4293,0.16322 0.78055,0.45379 0.78055,0.64572 0,0.9427 -1.72416,3.18688 -2.44841,3.18688 -0.22926,0 -0.64073,-0.34169 -0.91437,-0.75933 z m 29.28278,-10.37287 c 0,-1.44148 1.23962,-4.0678 1.92,-4.0678 0.70379,0 0.52416,2.34531 -0.30397,3.96858 -0.8655,1.69652 -1.61603,1.74261 -1.61603,0.0992 z m -47.21351,-4.02063 c 0.22483,-4.94077 0.73666,-8.62071 1.30701,-9.3972 0.38654,-0.52622 0.44753,-0.49627 0.79434,0.39001 0.52681,1.3463 0.14993,5.83103 -0.77145,9.17996 -1.25954,4.57803 -1.5444,4.54102 -1.3299,-0.17277 z m 71.27102,10.82914 c 2.82717,-1.86231 5.44998,-7.86523 3.97231,-9.09158 -0.37047,-0.30747 -0.72455,0.18089 -2,2.75846 -1.14104,2.30595 -1.84251,3.32657 -2.65952,3.8695 -2.07976,1.38209 -3.87045,0.4546 -4.34929,-2.25271 -0.19589,-1.10759 -0.15405,-1.20009 0.54338,-1.2012 1.1076,-0.002 2.72826,-1.10301 3.32691,-2.26066 0.79293,-1.53336 0.98659,-4.26846 0.36897,-5.21106 -0.61219,-0.93432 -2.96337,-2.12708 -4.19291,-2.12708 -2.08094,0 -4.16761,4.32678 -4.16679,8.64 3.2e-4,2.01549 0.15257,2.70761 0.94994,4.32 0.82223,1.66267 1.18538,2.04068 2.70949,2.82046 2.07071,1.05942 3.59974,0.98596 5.49751,-0.26413 z m -4.97655,-8.87633 c 0.59488,-3.34481 1.25828,-4.64528 2.18774,-4.28862 0.45527,0.17471 0.52053,0.44134 0.34558,1.412 -0.34461,1.91206 -1.427,3.91662 -2.11483,3.91662 -0.50543,0 -0.57341,-0.16894 -0.41849,-1.04 z m -140.12337,-9.36046 c 4.59778,-1.08407 9.22514,-3.94838 12.04287,-7.45448 2.0107,-2.5019 4.43703,-6.17545 5.79927,-8.78028 0.85942,-1.64337 1.14371,-1.9082 2.72,-2.53387 2.44959,-0.97231 7.20756,-3.35724 9.12027,-4.57154 0.88,-0.55867 1.76938,-1.11752 1.97641,-1.24188 0.25696,-0.15435 0.49473,0.34378 0.74921,1.5696 1.34992,6.50253 9.599,6.54767 15.99537,0.0875 2.13896,-2.16028 2.22188,-2.20947 2.38747,-1.41632 0.0943,0.45193 0.25311,1.2089 0.35281,1.68217 0.2965,1.40738 1.37131,2.62327 3.12681,3.53721 1.35443,0.70513 2.08413,0.86202 4.05192,0.87116 2.11368,0.01 2.68631,-0.12681 4.8,-1.14525 1.32,-0.63601 3.61245,-2.02872 5.09434,-3.0949 l 2.69435,-1.9385 0.98565,1.6418 c 1.9947,3.32257 5.38626,4.92737 9.76973,4.6228 2.73492,-0.19003 5.59756,-1.09575 7.51492,-2.37767 0.71555,-0.47841 2.59701,-1.19599 4.18101,-1.59462 1.60611,-0.4042 4.3967,-1.47526 6.30896,-2.42146 l 3.42897,-1.69668 0.31303,1.45964 c 0.47298,2.2054 0.84565,3.01041 2.00486,4.33067 1.34712,1.53429 3.18591,2.36935 5.23695,2.37829 7.82891,0.0341 18.57018,-8.77677 24.29931,-19.93232 1.60063,-3.1167 1.73907,-3.9502 0.84043,-5.05997 -0.59157,-0.73055 -0.63645,-0.73642 -1.71174,-0.22365 -0.76004,0.36244 -1.65853,1.35826 -2.88251,3.19477 -4.62495,6.9395 -10.49206,11.7882 -14.26418,11.7882 -2.17814,0 -2.61408,-0.56501 -2.61408,-3.38798 0,-3.98592 2.46931,-12.15457 5.48695,-18.15124 1.09166,-2.16933 5.45445,-9.52571 9.00316,-15.18079 l 2.25909,-3.6 h 7.31815 c 8.54423,0 8.45818,0.0242 12.07704,-3.38969 2.10793,-1.98851 3.85561,-4.6692 3.85561,-5.91395 0,-1.18525 -0.81393,-1.37973 -3.44679,-0.82356 -2.30796,0.48753 -12.89155,2.12703 -13.73157,2.12715 -0.2081,3e-5 0.12194,-0.7434 0.73343,-1.65206 1.37936,-2.04972 1.31718,-2.63503 -0.29407,-2.76818 -1.46561,-0.1211 -3.40342,0.49725 -8.061,2.57226 -4.57256,2.03714 -10.29893,3.96396 -13.12,4.41464 -1.232,0.19682 -2.63445,0.50868 -3.11655,0.69302 -1.36028,0.52012 -3.12345,2.65465 -3.12345,3.7813 v 0.95911 h 4.96 c 2.728,0 4.96,0.0815 4.96,0.18099 0,0.0995 -1.82381,3.23154 -4.05291,6.96 -6.53566,10.93172 -10.48227,19.64679 -12.03914,26.58529 -0.4126,1.83882 -0.47443,1.91723 -2.45802,3.11662 -2.08136,1.25852 -5.4144,2.6593 -5.68462,2.38909 -0.0828,-0.0828 0.0741,-0.84385 0.34858,-1.69125 1.21681,-3.75638 1.59757,-7.14412 1.55785,-13.86073 -0.0434,-7.34191 0.005,-7.53622 2.13347,-8.62226 1.33999,-0.68361 1.63479,-1.15696 1.63479,-2.62495 0,-2.43138 -1.08074,-2.83279 -7.62672,-2.83279 -7.55444,0 -7.13099,-0.32464 -15.13227,11.60108 -2.80487,4.1806 -5.59704,8.59192 -6.20481,9.80294 -1.03454,2.06141 -2.0762,5.29023 -2.0762,6.4356 0,1.02394 -4.93967,3.52038 -6.96573,3.52038 -3.19066,0 -2.89251,-1.14461 3.70934,-14.24 6.80044,-13.48934 7.09639,-14.12975 7.09639,-15.35621 0,-2.1884 -2.46345,-2.58648 -7.65189,-1.23649 -3.42165,0.89028 -3.8173,1.42745 -7.69562,10.44816 -4.55991,10.60606 -8.23305,16.90259 -10.88348,18.65655 -1.55112,1.02649 -3.45084,1.31505 -4.32901,0.65757 -1.38729,-1.03865 -0.37673,-5.21819 2.79144,-11.54511 1.3819,-2.75971 4.21562,-7.64093 8.36297,-14.40565 1.37649,-2.24518 1.49345,-3.46924 0.39995,-4.18573 -0.64567,-0.42307 -1.15957,-0.45143 -3.28,-0.18107 -3.41825,0.43586 -5.27498,1.13199 -6.69338,2.50952 -3.045,2.95726 -8.85581,13.74447 -11.03168,20.47922 l -1.32017,4.08623 -2.33776,1.68135 c -1.28577,0.92474 -3.72314,2.41067 -5.41637,3.30208 -3.48683,1.83563 -3.34648,2.10961 -1.32701,-2.59042 0.64279,-1.496 3.31345,-6.824 5.93481,-11.84 5.03285,-9.63043 7.14418,-13.98731 7.48543,-15.44676 0.1626,-0.69537 0.0277,-1.06636 -0.62484,-1.71894 -0.79252,-0.79253 -0.94161,-0.82168 -3.12779,-0.6117 -4.64077,0.44575 -6.70666,1.29364 -7.91478,3.24842 -0.38029,0.61532 -0.78355,1.07607 -0.89613,1.02387 -0.11258,-0.0522 -1.20967,-0.59889 -2.43797,-1.21489 -2.11912,-1.06276 -2.39716,-1.11911 -5.44,-1.10254 -3.60015,0.0196 -5.93955,0.73204 -9.4939,2.89119 -5.76153,3.49995 -11.54901,11.17727 -13.37952,17.74846 -1.09616,3.93505 -0.86487,9.88792 0.48566,12.49956 0.46484,0.8989 0.45277,0.94231 -0.34643,1.24616 -4.34131,1.65057 -7.83104,4.5569 -9.3056,7.74994 -0.80588,1.74509 -0.92672,2.38335 -0.92532,4.88723 0.001,2.24802 0.14912,3.19955 0.67381,4.33626 1.33127,2.88409 3.9876,5.09567 7.14197,5.94618 2.01228,0.54257 5.86189,0.52258 8.2602,-0.0429 z m -7.35357,-8.64224 c -1.0422,-0.58718 -1.84403,-2.01286 -1.84403,-3.27876 0,-1.36301 1.70311,-3.79508 3.42007,-4.88395 3.14679,-1.99563 4.63925,-2.37285 9.43327,-2.38422 2.40533,-0.006 4.47916,0.0955 4.60851,0.2248 0.39694,0.39695 -2.07217,3.80093 -4.49605,6.19839 -2.81412,2.78345 -5.76449,4.36088 -8.44307,4.51413 -1.19929,0.0686 -2.09594,-0.0621 -2.6787,-0.39039 z m 87.01552,-18.73049 c -1.14752,-0.3344 -1.74598,-0.83633 -2.31949,-1.94538 -0.4385,-0.84797 -0.40374,-0.94758 0.82711,-2.36971 1.86101,-2.15022 3.74775,-5.01803 4.84743,-7.36799 1.06948,-2.28544 1.03155,-3.63495 -0.12493,-4.44498 -0.64677,-0.45302 -0.62442,-0.51084 1.14416,-2.9604 0.9921,-1.3741 2.12835,-2.90262 2.525,-3.39672 l 0.72118,-0.89837 -0.0852,4.89837 c -0.15685,9.01383 -0.89521,13.6172 -2.57723,16.06771 -1.45914,2.12581 -3.1424,2.94655 -4.958,2.41747 z m -75.54934,-2.29261 c -2.92312,-2.92312 -1.28012,-8.73912 3.96811,-14.04662 3.11168,-3.14682 5.79743,-4.68541 8.70215,-4.9852 1.56868,-0.1619 4.09954,0.29599 4.09954,0.74171 0,0.50324 -3.19429,7.81933 -4.65605,10.66406 -3.2336,6.2929 -5.39345,8.36788 -8.94558,8.59406 -2.00359,0.12758 -2.10293,0.0972 -3.16817,-0.96801 z m -75.661814,25.05329 c 13.25499,-2.66064 25.622204,-10.55878 34.255824,-21.87699 5.64383,-7.39876 10.10195,-16.9975 12.14558,-26.1505 0.65445,-2.93113 0.74811,-4.1769 0.7338,-9.76001 -0.0143,-5.59058 -0.10604,-6.72376 -0.72509,-8.96 -3.1725,-11.46018 -11.71646,-18.472471 -24.558493,-20.15591 -10.851671,-1.422531 -20.446811,0.588453 -28.330431,5.93759 -10.91892,7.40864 -14.57543,19.88108 -8.06001,27.49288 2.44352,2.8547 5.45342,4.00363 9.88169,3.772 l 2.97822,-0.15578 -0.43113,0.83461 c -2.68176,5.1915 -13.45208,27.74334 -14.07687,29.47539 -1.53825,4.2644 -0.98561,5.43923 2.5586,5.43923 2.61014,0 5.29138,-1.32039 7.40282,-3.64554 2.13313,-2.34903 10.3133,-16.14603 20.32114,-34.27446 7.177881,-13.00217 8.255954,-15.3503 8.255954,-17.98211 0,-3.15678 -1.411683,-3.93843 -7.109724,-3.9367 -3.35434,9.6e-4 -4.08277,0.0942 -4.97093,0.63569 -1.06576,0.64981 -1.0989,0.71177 -6.79496,12.70494 l -1.70116,3.58182 -1.15161,-0.59068 c -3.29543,-1.69027 -4.87923,-6.11341 -3.75724,-10.49297 1.49884,-5.85053 5.86846,-10.01011 12.39333,-11.7976 2.94708,-0.80735 9.48317,-0.72305 12.872764,0.16603 6.42891,1.68627 10.43859,5.74908 11.93309,12.09117 0.86283,3.66157 0.47412,10.06253 -0.94159,15.5051 -3.54065,13.61178 -11.430773,27.04711 -20.363644,34.67531 -4.87778,4.16535 -10.14048,7.19115 -14.72833,8.46805 -3.03898,0.84582 -7.57149,1.15562 -10.08,0.68896 -6.14779,-1.14365 -10.6441,-6.00756 -11.87508,-12.84592 -0.78995,-4.38843 -0.25144,-7.98259 1.86367,-12.43857 1.06023,-2.23363 1.75661,-3.16025 4.12354,-5.48695 3.07839,-3.02608 3.49141,-3.97854 2.13667,-4.92743 -0.94883,-0.66459 -4.70954,-0.65776 -6.99072,0.0127 -6.11486,1.7972 -11.88411,7.31982 -13.772,13.18326 -1.07007,3.32346 -1.21265,9.08284 -0.30663,12.38532 2.48675,9.06427 10.25635,16.36834 19.70055,18.52016 3.53054,0.80442 3.56686,0.8071 8.96,0.66385 3.2713,-0.0869 6.23515,-0.35984 8.2084,-0.75593 z m 66.016724,-51.28942 c 1.70479,-0.85377 2.95711,-2.04629 3.79953,-3.61807 0.5383,-1.00435 0.67944,-1.79685 0.65543,-3.68001 -0.0266,-2.08733 -0.24562,-2.95298 -1.68102,-6.64464 -2.19959,-5.65705 -2.68887,-7.86202 -2.53748,-11.43536 0.10111,-2.38678 0.29002,-3.2388 1.10306,-4.97515 0.53958,-1.15234 1.40181,-2.59234 1.91606,-3.2 1.91826,-2.266686 1.9283,-2.288146 0.88695,-1.895141 -1.75004,0.660454 -5.47506,3.178281 -6.75257,4.564211 -4.88153,5.29584 -5.07519,11.28738 -0.63893,19.76715 2.50775,4.79349 2.65947,8.26684 0.4798,10.9842 l -0.99886,1.24527 1.23658,-0.23198 c 0.68011,-0.12759 1.81926,-0.52381 2.53145,-0.88048 z m -4.07038,-5.57277 c 1.3913,-2.4241 0.88693,-4.4571 -1.97567,-7.96337 -3.04126,-3.72511 -3.88092,-7.17286 -2.60389,-10.69185 0.28141,-0.77546 0.4511,-1.47047 0.37709,-1.54449 -0.24419,-0.24418 -2.71677,3.27302 -3.43693,4.88899 -0.92184,2.06849 -0.94703,4.88621 -0.0614,6.87196 0.35482,0.7956 1.66733,2.54899 2.91669,3.89642 2.4954,2.6913 2.97958,3.92051 2.39981,6.0926 l -0.326,1.22138 0.9978,-0.76317 c 0.54879,-0.41974 1.31944,-1.32355 1.71254,-2.00847 z" id="path1344"/>
    </g>
  </g>
</svg>