<svg xmlns:inkscape="http://www.inkscape.org/namespaces/inkscape" xmlns:sodipodi="http://sodipodi.sourceforge.net/DTD/sodipodi-0.dtd" xmlns="http://www.w3.org/2000/svg" xmlns:svg="http://www.w3.org/2000/svg" xmlns:rdf="http://www.w3.org/1999/02/22-rdf-syntax-ns#" xmlns:cc="http://creativecommons.org/ns#" xmlns:dc="http://purl.org/dc/elements/1.1/" version="1.1" id="svg62" sodipodi:docname="logo-querodelivery.svg" inkscape:version="1.1.1 (3bf5ae0d25, 2021-09-20)" viewBox="18.33 85.74 222.54 87.71">
  <metadata id="metadata68">
    <rdf:RDF>
      <cc:Work rdf:about="">
        <dc:format>image/svg+xml</dc:format>
        <dc:type rdf:resource="http://purl.org/dc/dcmitype/StillImage"/>
      </cc:Work>
    </rdf:RDF>
  </metadata>
  <defs id="defs66"/>
  <sodipodi:namedview pagecolor="#ffffff" bordercolor="#666666" borderopacity="1" objecttolerance="10" gridtolerance="10" guidetolerance="10" inkscape:pageopacity="0" inkscape:pageshadow="2" inkscape:window-width="2560" inkscape:window-height="1009" id="namedview64" inkscape:pagecheckerboard="0" showgrid="false" inkscape:zoom="2.2479037" inkscape:cx="141.46513" inkscape:cy="136.79411" inkscape:window-x="-8" inkscape:window-y="-8" inkscape:window-maximized="1" inkscape:current-layer="svg62"/>
  <g id="Layer1000">
    <g id="Layer1001">
      <g id="Layer1002">
        <path d="m 165.1861,168.1933 c -1.5037,0.2506 -3.0073,0.5012 -4.511,0.5012 -3.7591,0 -5.5133,-2.5061 -5.5133,-6.0146 v -1.7542 c 0,-3.7591 1.7542,-6.0146 5.5133,-6.0146 0.7519,0 2.0049,0 3.0072,0.2506 v -4.511 c 0,-0.2506 0.2506,-0.5011 0.5012,-0.5011 l 1.2532,1e-4 c 0.2505,0 0.5011,0.2506 0.5011,0.5011 v 17.2919 c 1e-4,0 -0.2506,0.2506 -0.7517,0.2506 z m -1.5037,-11.5279 c -0.7518,-0.2506 -2.0048,-0.2506 -3.0072,-0.2506 -2.5061,0 -3.2579,1.5037 -3.2579,4.2603 v 1.7542 c 0,2.7567 0.7518,4.2603 3.2579,4.2603 0.7519,0 2.0049,0 3.0072,-0.2506 z" style="fill:#ffffff;fill-rule:evenodd" id="path4"/>
      </g>
      <g id="Layer1003">
        <path d="m 179.22,162.1787 h -8.2699 v 0.2506 c 0,3.0072 1.253,4.0097 3.5085,4.0097 1.5036,0 3.2579,0 4.5109,-0.2506 0,0 0,0 0,0 0.2506,0 0.5012,0 0.5012,0.2506 v 0.7519 c 0,0.2505 0,0.5011 -0.5012,0.5011 -1.5036,0.2506 -2.7566,0.5012 -4.5109,0.5012 -2.7567,0 -5.5133,-1.253 -5.5133,-6.0146 v -2.2555 c 0,-3.5085 2.0049,-5.764 5.5133,-5.764 3.5085,0 5.5133,2.2555 5.5133,5.764 v 1.2531 c -0.2506,1.0025 -0.5012,1.0025 -0.7519,1.0025 z m -1.7542,-1.7542 c 0,-2.7566 -1.0024,-3.7591 -3.2579,-3.7591 -2.0049,0 -3.2579,1.2531 -3.2579,3.7591 v 0.2506 l 6.5158,-0.2506 z" style="fill:#ffffff;fill-rule:evenodd" id="path7"/>
      </g>
      <g id="Layer1004">
        <path d="m 184.7334,168.444 h -1.253 c -0.2506,0 -0.5012,-0.2506 -0.5012,-0.5012 v -17.5424 c 0,-0.2506 0.2506,-0.5012 0.5012,-0.5012 l 1.253,-1e-4 c 0.2506,0 0.5012,0.2506 0.5012,0.5012 v 17.5424 c -0.2506,0.2506 -0.2506,0.5013 -0.5012,0.5013 z" style="fill:#ffffff;fill-rule:evenodd" id="path10"/>
      </g>
      <g id="Layer1005">
        <path d="m 190.748,152.6557 h -1.253 c -0.2506,0 -0.5012,-0.2506 -0.5012,-0.5011 v -2.0049 c 0,-0.2506 0.2506,-0.5012 0.5012,-0.5012 l 1.253,-1e-4 c 0.2506,0 0.5012,0.2506 0.5012,0.5012 v 2.0049 c 0,0.2506 -0.2506,0.5012 -0.5012,0.5012 z m 0,15.7883 h -1.253 c -0.2506,0 -0.5012,-0.2506 -0.5012,-0.5012 v -12.5303 c 0,-0.2506 0.2506,-0.5012 0.5012,-0.5012 l 1.253,-1e-4 c 0.2506,0 0.5012,0.2506 0.5012,0.5012 v 12.5303 c 0,0.2506 -0.2506,0.5013 -0.5012,0.5013 z" style="fill:#ffffff;fill-rule:evenodd" id="path13"/>
      </g>
      <g id="Layer1006">
        <path d="m 205.2832,155.4124 -3.2579,11.7786 c -0.2506,1.0024 -1.253,1.5036 -2.2555,1.5036 -1.0024,0 -2.0049,-0.2506 -2.2555,-1.5036 l -3.2579,-11.7786 c 0,0 0,0 0,-0.2506 0,-0.2506 0.2506,-0.5012 0.5012,-0.5012 l 1.2531,-10e-5 c 0.2506,0 0.2506,0.2506 0.5012,0.5012 l 2.7567,10.7761 c 0.2505,0.5012 0.2505,0.7519 0.5011,0.7519 0.2506,0 0.2506,0 0.5012,-0.7519 l 2.7566,-10.7761 c 0,-0.2506 0.2506,-0.5012 0.5012,-0.5012 h 1.2533 c 0.2505,0.2507 0.5012,0.2507 0.5012,0.7519 0,-0.2506 0,0 0,0 z" style="fill:#ffffff;fill-rule:evenodd" id="path16"/>
      </g>
      <g id="Layer1007">
        <path d="m 217.8136,162.1787 h -8.2701 v 0.2506 c 0,3.0072 1.253,4.0097 3.5085,4.0097 1.5036,0 3.258,0 4.511,-0.2506 0,0 0,0 0,0 0.2506,0 0.5012,0 0.5012,0.2506 v 0.7519 c 0,0.2505 0,0.5011 -0.5012,0.5011 -1.5036,0.2506 -2.7567,0.5012 -4.511,0.5012 -2.7566,0 -5.5133,-1.253 -5.5133,-6.0146 v -2.2555 c 0,-3.5085 2.0049,-5.764 5.5133,-5.764 3.5085,0 5.5133,2.2555 5.5133,5.764 v 1.2531 c -0.2506,1.0025 -0.2506,1.0025 -0.7517,1.0025 z m -1.5036,-1.7542 c 0,-2.7566 -1.0025,-3.7591 -3.258,-3.7591 -2.0049,0 -3.2579,1.2531 -3.2579,3.7591 v 0.2506 l 6.5159,-0.2506 z" style="fill:#ffffff;fill-rule:evenodd" id="path19"/>
      </g>
      <g id="Layer1008">
        <path d="m 227.086,156.4148 c -1.2531,0 -2.2555,0.2506 -3.5085,1.0025 v 10.2748 c 0,0.2506 -0.2506,0.5012 -0.5012,0.5012 h -1.253 c -0.2506,0 -0.5012,-0.2506 -0.5012,-0.5012 v -12.5303 c 0,-0.2506 0.2506,-0.5012 0.5012,-0.5012 l 1.253,-10e-5 c 0.2506,0 0.5012,0.2506 0.5012,0.5012 v 0.7519 c 1.253,-0.7519 2.2554,-1.2531 3.5085,-1.2531 0.2506,0 0.5011,0.2506 0.5011,0.5012 v 1.0024 c 2e-4,0.2507 -0.2505,0.2507 -0.5011,0.2507 z" style="fill:#ffffff;fill-rule:evenodd" id="path22"/>
      </g>
      <g id="Layer1009">
        <path d="m 240.3682,155.4124 -4.0097,14.2846 c -0.7519,2.7567 -1.7542,3.7591 -4.511,3.7591 -0.7518,0 -1.5036,0 -2.0049,-0.2506 -0.2506,0 -0.5011,-0.2505 -0.5011,-0.5011 v -1.0025 c 0,-0.2506 0.2505,-0.5011 0.5011,-0.5011 0,0 0,0 0,0 0.5012,0 1.7542,0.2505 2.2555,0.2505 1.5036,0 2.0049,-0.2505 2.5061,-2.0049 l 0.2506,-1.0024 h -0.2506 c -0.7519,0 -1.5036,-0.2506 -1.7542,-1.7542 l -3.258,-11.2773 c 0,0 0,0 0,-0.2506 0,-0.2506 0.2506,-0.5012 0.5012,-0.5012 l 1.2532,-2e-4 c 0.2505,0 0.2505,0.2506 0.5011,0.5012 l 3.0073,10.7761 c 0,0.5012 0.2505,0.5012 0.5011,0.5012 l 0.5013,1e-4 3.0072,-11.2773 c 0,-0.2506 0.2506,-0.2506 0.5012,-0.2506 h 1.5037 c -0.5011,0 -0.5011,0 -0.5011,0.5012 0,-0.2506 0,0 0,0 z" style="fill:#ffffff;fill-rule:evenodd" id="path25"/>
      </g>
    </g>
    <g id="Layer1010">
      <g id="Layer1011">
        <path d="m 113.8116,149.8991 v -9.0219 c -1.5036,1.253 -3.5085,2.0049 -6.0146,2.0049 -6.2652,0 -10.7761,-4.0097 -10.7761,-10.5256 v -5.764 c 0,-6.5157 4.5109,-10.5255 10.7761,-10.5255 3.2579,0 5.5133,1.0024 7.2676,2.7566 0.2506,-1.7542 1.5036,-2.7566 3.258,-2.7566 l 0.2505,1e-4 c 2.0049,0 3.5086,1.5036 3.5086,3.5085 v 30.5741 c 0,1.7542 -1.2531,3.0072 -3.0073,3.0072 h -2.2555 c -2.0049,-0.5012 -3.0073,-1.5036 -3.0073,-3.2578 z m 0,-17.0413 v -7.017 c 0,-2.7567 -1.5036,-4.0097 -4.2603,-4.0097 -3.0072,0 -4.2602,1.5036 -4.2602,4.0097 v 7.017 c 0,2.7566 1.5036,4.0097 4.2602,4.0097 2.7567,0 4.2603,-1.2531 4.2603,-4.0097 z" style="fill:#ffffff;fill-rule:evenodd" id="path29"/>
      </g>
      <g id="Layer1012">
        <path d="m 129.8504,132.3565 v -14.0339 c 0,-1.0025 0.7519,-1.7542 1.7542,-1.7542 h 4.5111 c 1.0025,0 1.7542,0.7518 1.7542,1.7542 v 14.0339 c 0,2.7567 1.2531,4.2603 4.0097,4.2603 2.7567,0 4.0097,-1.5036 4.0097,-4.2603 v -14.0339 c 0,-1.0025 0.7519,-1.7542 1.7542,-1.7542 h 4.5111 c 1.0024,0 1.7542,0.7518 1.7542,1.7542 v 16.2894 l 1.7542,1.7542 c 1.253,1.253 1.253,2.7566 0,4.0097 l -1.5036,1.5036 c -1.2531,1.253 -2.7567,1.0024 -4.0097,0 l -2.5061,-2.5061 c -1.5036,2.2555 -4.2603,3.5085 -7.7688,3.5085 -6.0146,2e-4 -10.0244,-3.7589 -10.0244,-10.5254 z" style="fill:#ffffff;fill-rule:evenodd" id="path32"/>
      </g>
      <g id="Layer1013">
        <path d="m 162.1788,132.8578 v -6.7664 c 0,-6.7663 4.511,-10.2748 12.2798,-10.2748 7.7688,0 12.0291,3.5085 12.0291,10.0243 v 3.5085 c 0,1.5036 -0.7518,2.2555 -2.2554,2.2555 l -14.0341,-10e-5 v 2.0048 c 0,2.5061 1.253,3.5086 4.511,3.5086 2.506,0 3.7591,-0.7519 3.7591,-2.2555 v -0.2506 c 0,-0.5012 0.2505,-0.7519 0.7518,-0.7519 h 5.7639 c 0.5012,0 1.0025,0.2506 1.0025,1.0025 v 0.5012 c 0,4.7615 -4.0097,7.2676 -11.2773,7.2676 -8.0195,0.2506 -12.5304,-3.258 -12.5304,-9.7737 z m 8.0194,-8.0195 v 2.0049 h 8.5206 v -2.0049 c 0,-2.5061 -1.5036,-3.7591 -4.2602,-3.7591 -2.7568,0 -4.2604,1.253 -4.2604,3.7591 z" style="fill:#ffffff;fill-rule:evenodd" id="path35"/>
      </g>
      <g id="Layer1014">
        <path d="m 194.5071,140.376 v -16.2894 l -1.7542,-1.7543 c -1.253,-1.253 -1.253,-2.7566 0,-4.0096 l 1.5036,-1.5037 c 1.2531,-1.253 2.7567,-1.253 4.0097,0 l 2.7567,2.7567 c 1.253,-2.2555 3.2579,-3.5085 5.5133,-3.5085 l 0.7518,-1e-4 c 2.2555,0 3.5085,1.0024 3.5085,3.0072 v 1.7542 c 0,1.7542 -1.253,2.7567 -3.0072,2.7567 l -1.0024,1e-4 c -2.7567,0 -4.0097,1.5036 -4.0097,4.2602 v 12.5304 c 0,1.253 -0.7519,1.7542 -1.7542,1.7542 l -4.5111,1e-4 c -1.253,0 -2.0048,-0.7518 -2.0048,-1.7542 z" style="fill:#ffffff;fill-rule:evenodd" id="path38"/>
      </g>
      <g id="Layer1015">
        <path d="m 215.0569,132.3565 v -6.0146 c 0,-6.7663 4.7616,-10.5255 12.5304,-10.5255 8.0194,0 12.7809,3.7591 12.7809,10.5255 v 6.0146 c 0,6.7663 -4.7616,10.5256 -12.7809,10.5256 -7.7689,0 -12.5304,-3.7591 -12.5304,-10.5256 z m 17.0412,0.5013 v -7.2676 c 0,-2.5061 -1.5036,-4.0097 -4.511,-4.0097 -3.0072,0 -4.2602,1.253 -4.2602,4.0097 v 7.2676 c 0,2.5061 1.5036,4.0097 4.5109,4.0097 2.7567,0 4.2603,-1.2531 4.2603,-4.0097 z" style="fill:#ffffff;fill-rule:evenodd" id="path41"/>
      </g>
    </g>
    <g id="Layer1016">
      <g id="Layer1017">
        <g id="Layer1018">
          <path d="m 62.1866,107.2958 c -0.5011,0 -1.253,-0.2505 -1.7542,-0.7518 -1.0024,-1.0025 -1.0024,-2.5061 0,-3.2579 L 70.958,92.7605 c 1.0024,-1.0024 2.5061,-1.0024 3.2579,0 1.0025,1.0025 1.0025,2.5061 0,3.2579 L 63.6904,106.544 c -0.5014,0.5013 -1.0026,0.7518 -1.5038,0.7518 z" style="fill:#ffffff;fill-rule:evenodd" id="path45"/>
        </g>
      </g>
      <g id="Layer1019">
        <g id="Layer1020">
          <path d="m 48.6539,103.2862 c -1.2531,0 -2.2555,-1.0025 -2.2555,-2.2555 V 87.9991 c 0,-1.2531 1.0024,-2.2555 2.2555,-2.2555 1.253,0 2.2554,1.0024 2.2554,2.2555 l -1e-4,12.781 c 0.2507,1.5036 -1.0023,2.5061 -2.2553,2.5061 z" style="fill:#ffffff;fill-rule:evenodd" id="path49"/>
        </g>
      </g>
      <g id="Layer1021">
        <g id="Layer1022">
          <path d="m 35.3717,107.2958 c -0.5012,0 -1.2531,-0.2505 -1.5036,-0.7518 L 23.0919,96.2691 c -1.0024,-1.0024 -1.0024,-2.2555 0,-3.2579 1.0025,-1.0024 2.2555,-1.0024 3.258,0 l 10.776,10.275 c 1.0024,1.0024 1.0024,2.2554 0,3.2579 -0.5012,0.5012 -1.0025,0.7517 -1.7542,0.7517 z" style="fill:#ffffff;fill-rule:evenodd" id="path53"/>
        </g>
      </g>
    </g>
    <g id="Layer1023">
      <path d="m 75.97,118.8237 c 0,-0.5011 -0.5012,-1.0024 -1.253,-1.0024 -1.0025,0 -1.7542,-0.5012 -2.5061,-1.2531 -0.7518,-0.7518 -2.0049,-2.0048 -4.0097,-2.0048 0,0 0,0 0,0 -2.0049,0 -3.2579,1.0024 -4.0097,2.0048 -0.7518,0.7519 -1.253,1.2531 -2.506,1.2531 -1.2531,0 -1.7542,-0.5012 -2.5061,-1.2531 -0.7519,-0.7518 -2.0049,-2.0048 -4.0097,-2.0048 0,0 0,0 0,0 -2.0049,0 -3.2579,1.0024 -4.0097,2.0048 -0.7518,0.7519 -1.253,1.2531 -2.2554,1.2531 0,0 0,0 0,0 0,0 0,0 0,0 0,0 0,0 0,0 0,0 0,0 0,0 -1.0025,0 -1.5037,-0.5012 -2.2555,-1.2531 -1.0025,-0.7518 -2.0049,-2.0048 -4.0097,-2.0048 0,0 0,0 0,0 -2.0049,0 -3.2579,1.0024 -4.0097,2.0048 -0.7519,0.7519 -1.253,1.2531 -2.5061,1.2531 -1.0024,0 -1.7542,-0.5012 -2.506,-1.2531 -1.0025,-0.7518 -2.0049,-2.0048 -4.0097,-2.0048 0,0 0,0 0,0 -2.0049,0 -3.2579,1.0024 -4.0097,2.0048 -0.7519,0.7519 -1.253,1.2531 -2.5061,1.2531 -0.5011,0 -1.253,0.5012 -1.253,1.0024 l -3.5087,44.6082 c 0,1.253 0.2506,2.506 1.253,3.5085 0.7519,1.0023 2.0049,1.5036 3.2579,1.5036 h 25.8126 25.8125 c 1.253,0 2.5061,-0.5012 3.2579,-1.5036 0.7519,-1.0025 1.2531,-2.2555 1.2531,-3.5085 z m -20.5498,3.258 c 1.7542,0 3.2579,1.5036 3.2579,3.2579 0,1.7542 -1.5036,3.2579 -3.2579,3.2579 -1.7542,0 -3.2579,-1.5036 -3.2579,-3.2579 0,-1.7543 1.5037,-3.2579 3.2579,-3.2579 z m -13.2822,0 c 1.7542,0 3.2579,1.5036 3.2579,3.2579 0,1.7542 -1.5036,3.2579 -3.2579,3.2579 -1.7542,0 -3.2579,-1.5036 -3.2579,-3.2579 1e-4,-1.7543 1.5037,-3.2579 3.2579,-3.2579 z m 6.7665,28.068 c -0.2506,0 -0.2506,0 0,0 -0.2506,0 -0.2506,0 0,0 -10.7762,0 -19.5474,-8.7713 -19.5474,-19.2968 0,-1.253 1.0024,-2.2555 2.2555,-2.2555 1.253,0 2.2555,1.0025 2.2555,2.2555 0,8.2701 6.7663,14.7858 14.7858,14.7858 0,0 0,0 0,0 0,0 0,0 0,0 8.27,0 14.7858,-6.7663 14.7858,-14.7858 0,-1.253 1.0024,-2.2555 2.2555,-2.2555 1.253,0 2.2554,1.0025 2.2554,2.2555 0.2505,10.5255 -8.5207,19.2968 -19.0461,19.2968 z" style="fill:#ffffff;fill-rule:evenodd" id="path58"/>
    </g>
  </g>
</svg>